<svg id="图层_1" data-name="图层 1" xmlns="http://www.w3.org/2000/svg" xmlns:xlink="http://www.w3.org/1999/xlink" viewBox="0 0 654 404"><defs><style>.cls-1,.cls-3,.cls-4,.cls-6{fill:none;}.cls-2{fill:#081217;}.cls-3{stroke:#dadcdd;}.cls-3,.cls-4,.cls-6{stroke-miterlimit:10;}.cls-4{stroke:#3d4448;}.cls-5{clip-path:url(#clip-path);}.cls-6{stroke:#000;stroke-opacity:0;stroke-width:2px;}.cls-7{fill:#45818e;}.cls-13,.cls-8{fill:#6b7e96;}.cls-10,.cls-9{fill:#969b9d;}.cls-10{font-size:7px;}.cls-10,.cls-13{font-family:Helvetica;}.cls-11{letter-spacing:-0.05em;}.cls-12{letter-spacing:-0.07em;}.cls-13{font-size:12px;}.cls-14{letter-spacing:-0.04em;}</style><clipPath id="clip-path"><rect class="cls-1" x="74.86" y="87.5" width="553.59" height="235.35"/></clipPath></defs><path class="cls-2" d="M0,0H654V404H0Z"/><path class="cls-3" d="M74.5,322.5h554"/><path class="cls-4" d="M74.5,264.5h554"/><path class="cls-4" d="M74.5,205.5h554"/><path class="cls-4" d="M74.5,146.5h554"/><path class="cls-4" d="M74.5,87.5h554"/><g class="cls-5"><path class="cls-6" d="M96,323H76V259a2,2,0,0,1,2-2H94a2,2,0,0,1,2,2Z"/></g><g class="cls-5"><path class="cls-7" d="M96,323H76V259a2,2,0,0,1,2-2H94a2,2,0,0,1,2,2Z"/></g><g class="cls-5"><path class="cls-6" d="M118,323H98V273a2,2,0,0,1,2-2h16a2,2,0,0,1,2,2Z"/></g><g class="cls-5"><path class="cls-7" d="M118,323H98V273a2,2,0,0,1,2-2h16a2,2,0,0,1,2,2Z"/></g><g class="cls-5"><path class="cls-6" d="M140,323H120V292a2,2,0,0,1,2-2h16a2,2,0,0,1,2,2Z"/></g><g class="cls-5"><path class="cls-7" d="M140,323H120V292a2,2,0,0,1,2-2h16a2,2,0,0,1,2,2Z"/></g><g class="cls-5"><path class="cls-6" d="M162,323H142V297a2,2,0,0,1,2-2h16a2,2,0,0,1,2,2Z"/></g><g class="cls-5"><path class="cls-7" d="M162,323H142V297a2,2,0,0,1,2-2h16a2,2,0,0,1,2,2Z"/></g><g class="cls-5"><path class="cls-6" d="M185,323H165V304a2,2,0,0,1,2-2h16a2,2,0,0,1,2,2Z"/></g><g class="cls-5"><path class="cls-7" d="M185,323H165V304a2,2,0,0,1,2-2h16a2,2,0,0,1,2,2Z"/></g><g class="cls-5"><path class="cls-6" d="M207,323H187V294a2,2,0,0,1,2-2h16a2,2,0,0,1,2,2Z"/></g><g class="cls-5"><path class="cls-7" d="M207,323H187V294a2,2,0,0,1,2-2h16a2,2,0,0,1,2,2Z"/></g><g class="cls-5"><path class="cls-6" d="M229,323H209V242a2,2,0,0,1,2-2h16a2,2,0,0,1,2,2Z"/></g><g class="cls-5"><path class="cls-7" d="M229,323H209V242a2,2,0,0,1,2-2h16a2,2,0,0,1,2,2Z"/></g><g class="cls-5"><path class="cls-6" d="M251,323H231V266a2,2,0,0,1,2-2h16a2,2,0,0,1,2,2Z"/></g><g class="cls-5"><path class="cls-7" d="M251,323H231V266a2,2,0,0,1,2-2h16a2,2,0,0,1,2,2Z"/></g><g class="cls-5"><path class="cls-6" d="M273,323H253V181a2,2,0,0,1,2-2h16a2,2,0,0,1,2,2Z"/></g><g class="cls-5"><path class="cls-7" d="M273,323H253V181a2,2,0,0,1,2-2h16a2,2,0,0,1,2,2Z"/></g><g class="cls-5"><path class="cls-6" d="M295,323H275V158a2,2,0,0,1,2-2h16a2,2,0,0,1,2,2Z"/></g><g class="cls-5"><path class="cls-7" d="M295,323H275V158a2,2,0,0,1,2-2h16a2,2,0,0,1,2,2Z"/></g><g class="cls-5"><path class="cls-6" d="M317,323H297V134a2,2,0,0,1,2-2h16a2,2,0,0,1,2,2Z"/></g><g class="cls-5"><path class="cls-7" d="M317,323H297V134a2,2,0,0,1,2-2h16a2,2,0,0,1,2,2Z"/></g><g class="cls-5"><path class="cls-6" d="M340,323H320V132a2,2,0,0,1,2-2h16a2,2,0,0,1,2,2Z"/></g><g class="cls-5"><path class="cls-7" d="M340,323H320V132a2,2,0,0,1,2-2h16a2,2,0,0,1,2,2Z"/></g><g class="cls-5"><path class="cls-6" d="M362,323H342V146a2,2,0,0,1,2-2h16a2,2,0,0,1,2,2Z"/></g><g class="cls-5"><path class="cls-7" d="M362,323H342V146a2,2,0,0,1,2-2h16a2,2,0,0,1,2,2Z"/></g><g class="cls-5"><path class="cls-6" d="M384,323H364V151a2,2,0,0,1,2-2h16a2,2,0,0,1,2,2Z"/></g><g class="cls-5"><path class="cls-7" d="M384,323H364V151a2,2,0,0,1,2-2h16a2,2,0,0,1,2,2Z"/></g><g class="cls-5"><path class="cls-6" d="M406,323H386V134a2,2,0,0,1,2-2h16a2,2,0,0,1,2,2Z"/></g><g class="cls-5"><path class="cls-7" d="M406,323H386V134a2,2,0,0,1,2-2h16a2,2,0,0,1,2,2Z"/></g><g class="cls-5"><path class="cls-6" d="M428,323H408V198a2,2,0,0,1,2-2h16a2,2,0,0,1,2,2Z"/></g><g class="cls-5"><path class="cls-7" d="M428,323H408V198a2,2,0,0,1,2-2h16a2,2,0,0,1,2,2Z"/></g><g class="cls-5"><path class="cls-6" d="M450,323H430V186a2,2,0,0,1,2-2h16a2,2,0,0,1,2,2Z"/></g><g class="cls-5"><path class="cls-7" d="M450,323H430V186a2,2,0,0,1,2-2h16a2,2,0,0,1,2,2Z"/></g><g class="cls-5"><path class="cls-6" d="M472,323H452V148a2,2,0,0,1,2-2h16a2,2,0,0,1,2,2Z"/></g><g class="cls-5"><path class="cls-7" d="M472,323H452V148a2,2,0,0,1,2-2h16a2,2,0,0,1,2,2Z"/></g><g class="cls-5"><path class="cls-6" d="M495,323H475V153a2,2,0,0,1,2-2h16a2,2,0,0,1,2,2Z"/></g><g class="cls-5"><path class="cls-7" d="M495,323H475V153a2,2,0,0,1,2-2h16a2,2,0,0,1,2,2Z"/></g><g class="cls-5"><path class="cls-6" d="M517,323H497V144a2,2,0,0,1,2-2h16a2,2,0,0,1,2,2Z"/></g><g class="cls-5"><path class="cls-7" d="M517,323H497V144a2,2,0,0,1,2-2h16a2,2,0,0,1,2,2Z"/></g><g class="cls-5"><path class="cls-6" d="M539,323H519V162a2,2,0,0,1,2-2h16a2,2,0,0,1,2,2Z"/></g><g class="cls-5"><path class="cls-7" d="M539,323H519V162a2,2,0,0,1,2-2h16a2,2,0,0,1,2,2Z"/></g><g class="cls-5"><path class="cls-6" d="M561,323H541V205a2,2,0,0,1,2-2h16a2,2,0,0,1,2,2Z"/></g><g class="cls-5"><path class="cls-7" d="M561,323H541V205a2,2,0,0,1,2-2h16a2,2,0,0,1,2,2Z"/></g><g class="cls-5"><path class="cls-6" d="M583,323H563V228a2,2,0,0,1,2-2h16a2,2,0,0,1,2,2Z"/></g><g class="cls-5"><path class="cls-7" d="M583,323H563V228a2,2,0,0,1,2-2h16a2,2,0,0,1,2,2Z"/></g><g class="cls-5"><path class="cls-6" d="M605,323H585V217a2,2,0,0,1,2-2h16a2,2,0,0,1,2,2Z"/></g><g class="cls-5"><path class="cls-7" d="M605,323H585V217a2,2,0,0,1,2-2h16a2,2,0,0,1,2,2Z"/></g><g class="cls-5"><path class="cls-6" d="M627,323h0Z"/></g><g class="cls-5"><path class="cls-7" d="M627,323h0Z"/></g><path class="cls-8" d="M30,228.84l-2.48-.5v1h-.88v-1.17l-2.12-.42v1.59h-.88v-1.78l-2.51-.5v-.88l2.51.5v-1.84l-2.51-.52v-.87l2.51.5v-1h.88v1.19l2.12.43v-1.62h.88v1.8l2.48.51v.88l-2.48-.5v1.82L30,228Zm-3.36-1.56v-1.84L24.53,225v1.84Zm3.22-10.94H22.29v2.83h-1v-6.81h1v2.84h7.58Zm0-5.82-6.22,1.9v-1.09l3.6-1,1.33-.37-1.29-.33-3.64-1v-1.08l3.61-.94,1.19-.31-1.2-.36-3.6-1.06v-1l6.22,2v1.09l-3.73,1-1.05.25,4.78,1.25Zm-2-12.11.13-1.1a2.64,2.64,0,0,1,1.48,1,2.83,2.83,0,0,1,.53,1.78,2.88,2.88,0,0,1-.84,2.17,3.31,3.31,0,0,1-2.36.8,3.35,3.35,0,0,1-2.42-.82,2.71,2.71,0,0,1-.88-2.09,2.62,2.62,0,0,1,.85-2,3.35,3.35,0,0,1,2.39-.8H27v4.64a2.41,2.41,0,0,0,1.58-.58,1.73,1.73,0,0,0,.53-1.29,1.62,1.62,0,0,0-.3-1A2,2,0,0,0,27.87,198.41Zm-1.7,3.45v-3.47a2.07,2.07,0,0,0-1.19.39,1.67,1.67,0,0,0-.61,1.31,1.69,1.69,0,0,0,.49,1.24A1.94,1.94,0,0,0,26.17,201.86Zm1.7-10.45.13-1.1a2.64,2.64,0,0,1,1.48,1,2.83,2.83,0,0,1,.53,1.78,2.88,2.88,0,0,1-.84,2.17,3.31,3.31,0,0,1-2.36.8,3.35,3.35,0,0,1-2.42-.82,2.71,2.71,0,0,1-.88-2.09,2.62,2.62,0,0,1,.85-2,3.35,3.35,0,0,1,2.39-.8H27v4.64a2.41,2.41,0,0,0,1.58-.58,1.73,1.73,0,0,0,.53-1.29,1.62,1.62,0,0,0-.3-1A2,2,0,0,0,27.87,191.41Zm-1.7,3.45v-3.47a2.07,2.07,0,0,0-1.19.39,1.67,1.67,0,0,0-.61,1.31,1.69,1.69,0,0,0,.49,1.24A1.94,1.94,0,0,0,26.17,194.86Zm2.77-8.5.92-.16a4.24,4.24,0,0,1,.09.8,1.92,1.92,0,0,1-.17.89,1.11,1.11,0,0,1-.49.45,3.63,3.63,0,0,1-1.25.13H24.47v.77h-.82v-.77H22.11l-.63-1.05h2.17v-1.06h.82v1.06h3.64a2.37,2.37,0,0,0,.58,0,.61.61,0,0,0,.2-.19.69.69,0,0,0,.08-.36A4.54,4.54,0,0,0,28.94,186.36Zm-.93-.28-.15-1a1.48,1.48,0,0,0,.95-.49,1.76,1.76,0,0,0,.33-1.14,1.7,1.7,0,0,0-.28-1.06.9.9,0,0,0-.71-.36.65.65,0,0,0-.56.31,5.28,5.28,0,0,0-.36,1.08,11.06,11.06,0,0,1-.5,1.61,1.57,1.57,0,0,1-1.44.91,1.68,1.68,0,0,1-.76-.19,1.65,1.65,0,0,1-.59-.52,2.1,2.1,0,0,1-.3-.67,3,3,0,0,1-.13-.92,3.55,3.55,0,0,1,.22-1.27,1.71,1.71,0,0,1,.56-.82,2.1,2.1,0,0,1,1-.36l.14,1a1.11,1.11,0,0,0-.74.4,1.48,1.48,0,0,0-.28,1,1.71,1.71,0,0,0,.25,1,.7.7,0,0,0,.57.31.55.55,0,0,0,.35-.12,1.08,1.08,0,0,0,.29-.41c0-.1.13-.42.26-.94a15.62,15.62,0,0,1,.5-1.56,1.64,1.64,0,0,1,.55-.69,1.59,1.59,0,0,1,.9-.25,1.75,1.75,0,0,1,1,.32,1.9,1.9,0,0,1,.72.87,3.22,3.22,0,0,1,.25,1.31,2.91,2.91,0,0,1-.5,1.86A2.39,2.39,0,0,1,28,186.08Z"/><path class="cls-9" d="M67.92,323.71a5,5,0,0,1-.66,2.84,2.7,2.7,0,0,1-4,0,4.76,4.76,0,0,1-.69-2.72v-1.44a4.89,4.89,0,0,1,.64-2.8,2.75,2.75,0,0,1,4.08,0,4.59,4.59,0,0,1,.67,2.72Zm-1.09-1.49a3.93,3.93,0,0,0-.39-2,1.3,1.3,0,0,0-1.22-.64,1.32,1.32,0,0,0-1.22.64,3.84,3.84,0,0,0-.38,1.92v1.74a4.16,4.16,0,0,0,.39,2,1.34,1.34,0,0,0,1.22.66,1.32,1.32,0,0,0,1.19-.62,3.9,3.9,0,0,0,.41-2Z"/><path class="cls-9" d="M61.15,268.51H55.56v-.78l2.95-3.28a7.36,7.36,0,0,0,.91-1.21,2,2,0,0,0,.25-1,1.53,1.53,0,0,0-.41-1.1,1.37,1.37,0,0,0-1.07-.44,1.65,1.65,0,0,0-1.25.47,1.7,1.7,0,0,0-.46,1.28H55.4a2.51,2.51,0,0,1,.75-1.9,2.84,2.84,0,0,1,2-.74,2.7,2.7,0,0,1,1.89.63,2.16,2.16,0,0,1,.68,1.67,4.89,4.89,0,0,1-1.61,3l-2.28,2.47h4.28Zm1.91-4.28L63.5,260h4.37v1H64.42l-.27,2.33a2.82,2.82,0,0,1,1.44-.38,2.35,2.35,0,0,1,1.85.78,3,3,0,0,1,.68,2.08,2.91,2.91,0,0,1-.72,2.08,2.54,2.54,0,0,1-2,.76,2.68,2.68,0,0,1-1.84-.62,2.57,2.57,0,0,1-.82-1.75h1a1.77,1.77,0,0,0,.53,1.11,1.6,1.6,0,0,0,1.11.37,1.49,1.49,0,0,0,1.19-.51,2.15,2.15,0,0,0,.44-1.42,2,2,0,0,0-.47-1.38,1.63,1.63,0,0,0-1.25-.51,1.83,1.83,0,0,0-1.11.29l-.28.24Z"/><path class="cls-9" d="M56.06,205.39l.44-4.25h4.37v1H57.42l-.27,2.33a2.82,2.82,0,0,1,1.44-.38,2.33,2.33,0,0,1,1.85.79,3,3,0,0,1,.68,2.07A2.91,2.91,0,0,1,60.4,209a2.55,2.55,0,0,1-2,.77,2.69,2.69,0,0,1-1.84-.63,2.55,2.55,0,0,1-.82-1.75h1a1.77,1.77,0,0,0,.53,1.11,1.61,1.61,0,0,0,1.11.38,1.49,1.49,0,0,0,1.19-.52,2.13,2.13,0,0,0,.44-1.42,2,2,0,0,0-.47-1.38,1.63,1.63,0,0,0-1.25-.51,1.83,1.83,0,0,0-1.11.3l-.28.23Zm11.86.64a5,5,0,0,1-.66,2.85,2.69,2.69,0,0,1-4,0,4.74,4.74,0,0,1-.69-2.72v-1.44a4.83,4.83,0,0,1,.64-2.79,2.75,2.75,0,0,1,4.08,0,4.59,4.59,0,0,1,.67,2.72Zm-1.09-1.48a3.88,3.88,0,0,0-.39-2,1.3,1.3,0,0,0-1.22-.64,1.32,1.32,0,0,0-1.22.64,3.79,3.79,0,0,0-.38,1.92v1.73a4.2,4.2,0,0,0,.39,2.05,1.34,1.34,0,0,0,1.22.66,1.31,1.31,0,0,0,1.19-.63,3.88,3.88,0,0,0,.41-1.95Z"/><path class="cls-9" d="M61.08,142.91l-3.53,7.93H56.4l3.52-7.65H55.31v-.89h5.77Zm2,3.64.44-4.25h4.37v1H64.42l-.27,2.33a2.81,2.81,0,0,1,1.44-.37,2.35,2.35,0,0,1,1.85.78,3,3,0,0,1,.68,2.08,2.9,2.9,0,0,1-.72,2.07,2.55,2.55,0,0,1-2,.77,2.73,2.73,0,0,1-1.84-.62,2.59,2.59,0,0,1-.82-1.75h1a1.77,1.77,0,0,0,.53,1.1,1.61,1.61,0,0,0,1.11.38,1.46,1.46,0,0,0,1.19-.52,2.12,2.12,0,0,0,.44-1.42,2,2,0,0,0-.47-1.37,1.6,1.6,0,0,0-1.25-.52,1.83,1.83,0,0,0-1.11.3l-.28.23Z"/><path class="cls-9" d="M52.12,92H51.05V84.78l-2.19.8v-1L52,83.42h.15Zm8.8-3.64a4.94,4.94,0,0,1-.66,2.84,2.27,2.27,0,0,1-2,.92,2.32,2.32,0,0,1-2-.9,4.76,4.76,0,0,1-.69-2.72V87.06a4.89,4.89,0,0,1,.64-2.8,2.75,2.75,0,0,1,4.08,0A4.61,4.61,0,0,1,60.92,87Zm-1.09-1.49a3.93,3.93,0,0,0-.39-2,1.32,1.32,0,0,0-1.22-.64,1.34,1.34,0,0,0-1.22.64,3.84,3.84,0,0,0-.38,1.92v1.74a4.2,4.2,0,0,0,.39,2,1.35,1.35,0,0,0,1.22.65,1.32,1.32,0,0,0,1.19-.62,3.9,3.9,0,0,0,.41-2Zm8.09,1.49a4.94,4.94,0,0,1-.66,2.84,2.27,2.27,0,0,1-2,.92,2.32,2.32,0,0,1-2-.9,4.76,4.76,0,0,1-.69-2.72V87.06a4.89,4.89,0,0,1,.64-2.8,2.75,2.75,0,0,1,4.08,0A4.61,4.61,0,0,1,67.92,87Zm-1.09-1.49a3.93,3.93,0,0,0-.39-2,1.32,1.32,0,0,0-1.22-.64,1.34,1.34,0,0,0-1.22.64,3.84,3.84,0,0,0-.38,1.92v1.74a4.2,4.2,0,0,0,.39,2,1.35,1.35,0,0,0,1.22.65,1.32,1.32,0,0,0,1.19-.62,3.9,3.9,0,0,0,.41-2Z"/><path class="cls-8" d="M20.24,61.7l1.66-7.87H23L21.31,61.7Zm2.74,0,1.2-5.7h.88l-.21,1a4.07,4.07,0,0,1,1.07-.86,2.11,2.11,0,0,1,1-.27,1.49,1.49,0,0,1,1.07.38,1.26,1.26,0,0,1,.41,1,6,6,0,0,1-.14,1l-.73,3.45h-1l.76-3.61a3.71,3.71,0,0,0,.11-.78.56.56,0,0,0-.2-.45.75.75,0,0,0-.56-.19,1.85,1.85,0,0,0-1.33.55A3.4,3.4,0,0,0,24.51,59L24,61.7Zm11.28-.8-.17.8a2.69,2.69,0,0,1-.67.09,1.41,1.41,0,0,1-.93-.28.75.75,0,0,1-.25-.59,5.64,5.64,0,0,1,.13-.86l.7-3.31h-.76l.15-.75h.77l.29-1.41,1.11-.67L34.2,56h.95l-.16.75H34l-.66,3.15a6,6,0,0,0-.12.72.37.37,0,0,0,.09.27.52.52,0,0,0,.33.09A1.73,1.73,0,0,0,34.26,60.9Zm.72.8,1.65-7.87h1l-.62,3a3.42,3.42,0,0,1,1-.75,2.08,2.08,0,0,1,1-.24,1.5,1.5,0,0,1,1.09.38,1.26,1.26,0,0,1,.39,1,6.87,6.87,0,0,1-.17,1.1l-.7,3.37h-1l.72-3.45a6.69,6.69,0,0,0,.15-1,.54.54,0,0,0-.19-.43.73.73,0,0,0-.56-.19,2.07,2.07,0,0,0-1.75,1,6.22,6.22,0,0,0-.5,1.55L36,61.7Zm10.2-1.94.94.1a2.93,2.93,0,0,1-.94,1.34,2.6,2.6,0,0,1-1.75.63,2.43,2.43,0,0,1-1.16-.29,1.93,1.93,0,0,1-.81-.86,2.72,2.72,0,0,1-.28-1.26,4,4,0,0,1,.44-1.81,3.08,3.08,0,0,1,1.12-1.32,2.82,2.82,0,0,1,1.49-.42,2.15,2.15,0,0,1,1.62.64,2.35,2.35,0,0,1,.61,1.72,6.33,6.33,0,0,1-.06.86H42.2a1.78,1.78,0,0,0,0,.3,1.83,1.83,0,0,0,.35,1.22,1.19,1.19,0,0,0,.91.42,1.77,1.77,0,0,0,1-.33A2.25,2.25,0,0,0,45.18,59.76Zm-2.83-1.42h3.21v-.2A1.57,1.57,0,0,0,45.18,57a1.21,1.21,0,0,0-.94-.39,1.71,1.71,0,0,0-1.12.44A2.49,2.49,0,0,0,42.35,58.34Zm7.91,3.36a3.86,3.86,0,0,1,1.12-2.08c.3-.29.86-.77,1.71-1.44a10.38,10.38,0,0,0,1-.89,2.94,2.94,0,0,0,.59-.82,1.32,1.32,0,0,0,.13-.6,1.23,1.23,0,0,0-.39-.92,1.28,1.28,0,0,0-.94-.37,1.34,1.34,0,0,0-1,.39A2.25,2.25,0,0,0,52,56.18L51,56a2.61,2.61,0,0,1,.82-1.64,2.46,2.46,0,0,1,1.68-.61,2.59,2.59,0,0,1,1.22.29,1.71,1.71,0,0,1,.81.78,2.07,2.07,0,0,1,.29,1,2.39,2.39,0,0,1-.57,1.5,14.08,14.08,0,0,1-2,1.78c-.48.39-.84.7-1.08.94a3.36,3.36,0,0,0-.53.69h3.53L55,61.7Zm8.64,0,.44-2H56.12l.2-1,4.41-4.9h.79l-1,5h1.11l-.17.85H60.31l-.43,2Zm.61-2.87.69-3.29-2.94,3.29ZM65,61.7l1.65-7.87h1l-.62,3a3.42,3.42,0,0,1,1-.75,2.08,2.08,0,0,1,1-.24,1.5,1.5,0,0,1,1.09.38,1.26,1.26,0,0,1,.39,1,6.87,6.87,0,0,1-.17,1.1l-.7,3.37h-1l.72-3.45a6.69,6.69,0,0,0,.15-1,.54.54,0,0,0-.19-.43.73.73,0,0,0-.56-.19,2.07,2.07,0,0,0-1.75,1,6.22,6.22,0,0,0-.5,1.55L66,61.7Zm6.17-2.17a4,4,0,0,1,1-2.77,2.77,2.77,0,0,1,2.13-.89,2.25,2.25,0,0,1,1.66.64,2.39,2.39,0,0,1,.64,1.74,4.23,4.23,0,0,1-.41,1.83,3,3,0,0,1-2.66,1.75,2.64,2.64,0,0,1-1.22-.29,2,2,0,0,1-.84-.79A2.55,2.55,0,0,1,71.15,59.53Zm1-.1a1.8,1.8,0,0,0,.38,1.24,1.31,1.31,0,0,0,1,.41A1.63,1.63,0,0,0,74.1,61a1.9,1.9,0,0,0,.58-.37,2.62,2.62,0,0,0,.45-.6,2.88,2.88,0,0,0,.3-.72,3.1,3.1,0,0,0,.17-1A1.74,1.74,0,0,0,75.21,57a1.29,1.29,0,0,0-1-.42,1.59,1.59,0,0,0-.83.22,2.43,2.43,0,0,0-.69.64,2.88,2.88,0,0,0-.44,1A4.12,4.12,0,0,0,72.13,59.43Zm8.75,1.24a2.89,2.89,0,0,1-2.11,1.16,1.51,1.51,0,0,1-1.06-.38,1.21,1.21,0,0,1-.4-.92,7.29,7.29,0,0,1,.18-1.24L78.18,56h1l-.77,3.64a4.07,4.07,0,0,0-.09.72.68.68,0,0,0,.19.5.89.89,0,0,0,.58.17,1.67,1.67,0,0,0,.79-.19,2,2,0,0,0,.67-.53A2.92,2.92,0,0,0,81,59.5a8.15,8.15,0,0,0,.27-1L81.77,56h1l-1.2,5.7h-.89Zm2.1,1,1.2-5.7H85l-.25,1.17a3.81,3.81,0,0,1,.86-1,1.49,1.49,0,0,1,.87-.31,1.67,1.67,0,0,1,.71.21l-.39.9a1,1,0,0,0-.57-.19,1.52,1.52,0,0,0-1,.58,4.36,4.36,0,0,0-.85,2.05l-.46,2.28Zm4.09-2,1-.07a1.69,1.69,0,0,0,.13.72,1.08,1.08,0,0,0,.48.49,1.73,1.73,0,0,0,.81.19,1.57,1.57,0,0,0,1-.25.75.75,0,0,0,.14-1.1,3.48,3.48,0,0,0-1-.55c-.51-.22-.84-.38-1-.46a1.59,1.59,0,0,1-.54-.52,1.23,1.23,0,0,1-.19-.69,1.51,1.51,0,0,1,.53-1.15,2.17,2.17,0,0,1,1.52-.49,2.44,2.44,0,0,1,1.64.5,1.68,1.68,0,0,1,.57,1.3l-.95.06a1.06,1.06,0,0,0-.36-.81,1.43,1.43,0,0,0-1-.3,1.17,1.17,0,0,0-.79.24.62.62,0,0,0-.27.5.64.64,0,0,0,.23.47,4.15,4.15,0,0,0,.83.42,5.62,5.62,0,0,1,1.41.76,1.48,1.48,0,0,1,.47,1.1,1.46,1.46,0,0,1-.27.82,1.7,1.7,0,0,1-.79.66,3.06,3.06,0,0,1-1.25.24,2.93,2.93,0,0,1-1.69-.49A1.74,1.74,0,0,1,87.07,59.75Zm9,0,1-.07a1.69,1.69,0,0,0,.13.72,1.08,1.08,0,0,0,.48.49,1.73,1.73,0,0,0,.81.19,1.57,1.57,0,0,0,1-.25.75.75,0,0,0,.14-1.1,3.48,3.48,0,0,0-1-.55c-.51-.22-.84-.38-1-.46a1.59,1.59,0,0,1-.54-.52,1.23,1.23,0,0,1-.19-.69,1.51,1.51,0,0,1,.53-1.15,2.17,2.17,0,0,1,1.52-.49,2.44,2.44,0,0,1,1.64.5,1.68,1.68,0,0,1,.57,1.3l-.95.06a1.06,1.06,0,0,0-.36-.81,1.43,1.43,0,0,0-1-.3,1.17,1.17,0,0,0-.79.24.62.62,0,0,0-.27.5.64.64,0,0,0,.23.47,4.15,4.15,0,0,0,.83.42,5.62,5.62,0,0,1,1.41.76,1.48,1.48,0,0,1,.47,1.1,1.46,1.46,0,0,1-.27.82,1.7,1.7,0,0,1-.79.66,3.06,3.06,0,0,1-1.25.24,2.93,2.93,0,0,1-1.69-.49A1.74,1.74,0,0,1,96.07,59.75Zm5.44,4.14L103.15,56h.91l-.18.79a3.29,3.29,0,0,1,.89-.71,1.87,1.87,0,0,1,.85-.21,1.71,1.71,0,0,1,1.34.6,2.35,2.35,0,0,1,.55,1.68,4.28,4.28,0,0,1-.3,1.64,3.89,3.89,0,0,1-.73,1.18,3.1,3.1,0,0,1-.86.65,2.09,2.09,0,0,1-.91.21,1.74,1.74,0,0,1-1.59-1l-.64,3.1Zm1.92-4.52a2.94,2.94,0,0,0,.09.89,1.28,1.28,0,0,0,.43.57,1.29,1.29,0,0,0,.72.2,1.52,1.52,0,0,0,1.35-.94,3.85,3.85,0,0,0,.52-1.92A1.66,1.66,0,0,0,106.2,57a1.11,1.11,0,0,0-.86-.39,1.31,1.31,0,0,0-.71.21,1.82,1.82,0,0,0-.57.57,3.9,3.9,0,0,0-.46,1A3.54,3.54,0,0,0,103.43,59.37ZM111.84,61a4.09,4.09,0,0,1-1,.62,2.39,2.39,0,0,1-1,.21,1.77,1.77,0,0,1-1.26-.46,1.57,1.57,0,0,1-.49-1.2,1.65,1.65,0,0,1,.8-1.42,2.26,2.26,0,0,1,.87-.33,10.12,10.12,0,0,1,1.24-.09,4.81,4.81,0,0,0,1.33-.21,2.66,2.66,0,0,0,.11-.65.67.67,0,0,0-.25-.54,1.6,1.6,0,0,0-1-.26,1.81,1.81,0,0,0-1,.26,1.48,1.48,0,0,0-.56.77l-1-.08a2.47,2.47,0,0,1,.93-1.29,2.8,2.8,0,0,1,1.66-.46,2.58,2.58,0,0,1,1.67.5,1.2,1.2,0,0,1,.49,1,4.27,4.27,0,0,1-.15,1L113,59.83a5.17,5.17,0,0,0-.15,1.09,3.53,3.53,0,0,0,.12.78h-1A3.12,3.12,0,0,1,111.84,61Zm.36-2.19a3.45,3.45,0,0,1-.46.12,4.85,4.85,0,0,1-.76.1,5.72,5.72,0,0,0-1.21.19,1,1,0,0,0-.53.37,1,1,0,0,0-.17.55.91.91,0,0,0,.28.67,1.12,1.12,0,0,0,.8.27,1.9,1.9,0,0,0,.92-.25,1.86,1.86,0,0,0,.7-.72A4.28,4.28,0,0,0,112.2,58.81ZM114,61.7l1.2-5.7h.88l-.21,1a4.07,4.07,0,0,1,1.07-.86,2.11,2.11,0,0,1,1-.27,1.49,1.49,0,0,1,1.07.38,1.26,1.26,0,0,1,.41,1,6,6,0,0,1-.14,1l-.73,3.45h-1l.76-3.61a3.71,3.71,0,0,0,.11-.78.56.56,0,0,0-.2-.45.75.75,0,0,0-.56-.19,1.85,1.85,0,0,0-1.33.55,3.4,3.4,0,0,0-.86,1.82L115,61.7Zm6,0,1.2-5.7h.88l-.21,1a4.07,4.07,0,0,1,1.07-.86,2.11,2.11,0,0,1,1-.27,1.49,1.49,0,0,1,1.07.38,1.26,1.26,0,0,1,.41,1,6,6,0,0,1-.14,1l-.73,3.45h-1l.76-3.61a3.71,3.71,0,0,0,.11-.78.56.56,0,0,0-.2-.45.75.75,0,0,0-.56-.19,1.85,1.85,0,0,0-1.33.55,3.4,3.4,0,0,0-.86,1.82L121,61.7Zm7.39-6.77.23-1.1h1l-.22,1.1ZM126,61.7l1.18-5.7h1l-1.2,5.7Zm2,0,1.2-5.7h.88l-.21,1a4.07,4.07,0,0,1,1.07-.86,2.11,2.11,0,0,1,1-.27,1.49,1.49,0,0,1,1.07.38,1.26,1.26,0,0,1,.41,1,6,6,0,0,1-.14,1l-.73,3.45h-1l.76-3.61a3.71,3.71,0,0,0,.11-.78.56.56,0,0,0-.2-.45.75.75,0,0,0-.56-.19,1.85,1.85,0,0,0-1.33.55,3.4,3.4,0,0,0-.86,1.82L129,61.7Zm6,.52,1,.09a.81.81,0,0,0,.07.48.61.61,0,0,0,.3.27,2,2,0,0,0,1.94-.33,3.43,3.43,0,0,0,.47-1.34l.09-.46a2.25,2.25,0,0,1-1.61.77,1.94,1.94,0,0,1-1.45-.62,2.62,2.62,0,0,1-.58-1.82,3.52,3.52,0,0,1,.45-1.76,3.56,3.56,0,0,1,1.1-1.22,2.4,2.4,0,0,1,1.31-.41,1.91,1.91,0,0,1,1.73,1.06l.19-.93h.89l-1.14,5.5a4.18,4.18,0,0,1-.5,1.4,2,2,0,0,1-.84.8,2.73,2.73,0,0,1-1.27.28,3.3,3.3,0,0,1-1.19-.19,1.47,1.47,0,0,1-.73-.51,1.23,1.23,0,0,1-.25-.77A1.5,1.5,0,0,1,133.93,62.22Zm1.22-3a2.84,2.84,0,0,0,.11.89,1.27,1.27,0,0,0,.45.62,1.08,1.08,0,0,0,.67.22,1.66,1.66,0,0,0,.94-.32,2.33,2.33,0,0,0,.77-1,3.61,3.61,0,0,0,.29-1.35,1.52,1.52,0,0,0-.39-1.1,1.21,1.21,0,0,0-1-.43,1.5,1.5,0,0,0-.7.19,2.07,2.07,0,0,0-.61.58,2.82,2.82,0,0,0-.44.94A3.77,3.77,0,0,0,135.15,59.17ZM145.9,61.7l.44-2h-3.22l.2-1,4.41-4.9h.79l-1,5h1.11l-.17.85h-1.11l-.43,2Zm.61-2.87.69-3.29-2.94,3.29Zm2,5.06L150.15,56h.91l-.18.79a3.29,3.29,0,0,1,.89-.71,1.87,1.87,0,0,1,.85-.21,1.71,1.71,0,0,1,1.34.6,2.35,2.35,0,0,1,.55,1.68,4.28,4.28,0,0,1-.3,1.64,3.89,3.89,0,0,1-.73,1.18,3.1,3.1,0,0,1-.86.65,2.09,2.09,0,0,1-.91.21,1.74,1.74,0,0,1-1.59-1l-.64,3.1Zm1.92-4.52a2.94,2.94,0,0,0,.09.89,1.28,1.28,0,0,0,.43.57,1.29,1.29,0,0,0,.72.2,1.52,1.52,0,0,0,1.35-.94,3.85,3.85,0,0,0,.52-1.92A1.66,1.66,0,0,0,153.2,57a1.11,1.11,0,0,0-.86-.39,1.31,1.31,0,0,0-.71.21,1.82,1.82,0,0,0-.57.57,3.9,3.9,0,0,0-.46,1A3.54,3.54,0,0,0,150.43,59.37ZM155,61.7l1.19-5.7h1l-.2.93a3.48,3.48,0,0,1,1-.82,1.8,1.8,0,0,1,.92-.24,1.45,1.45,0,0,1,.89.28,1.36,1.36,0,0,1,.47.78,3.16,3.16,0,0,1,.92-.79,2,2,0,0,1,1-.27,1.5,1.5,0,0,1,1.07.35,1.18,1.18,0,0,1,.36.93,5.57,5.57,0,0,1-.13.88l-.76,3.67h-1l.78-3.77a4,4,0,0,0,.09-.67.56.56,0,0,0-.17-.42.7.7,0,0,0-.5-.17,1.81,1.81,0,0,0-.89.26,2.07,2.07,0,0,0-.69.69,4.58,4.58,0,0,0-.44,1.31l-.59,2.77h-1l.81-3.84a2.84,2.84,0,0,0,.08-.57.64.64,0,0,0-.17-.45.63.63,0,0,0-.45-.17,1.87,1.87,0,0,0-.88.26,2.16,2.16,0,0,0-.73.74,4.22,4.22,0,0,0-.47,1.33L156,61.7Zm12.17-2.17a4,4,0,0,1,1-2.77,2.77,2.77,0,0,1,2.13-.89,2.25,2.25,0,0,1,1.66.64,2.39,2.39,0,0,1,.64,1.74,4.23,4.23,0,0,1-.41,1.83,3,3,0,0,1-2.66,1.75,2.64,2.64,0,0,1-1.22-.29,2,2,0,0,1-.84-.79A2.55,2.55,0,0,1,167.15,59.53Zm1-.1a1.8,1.8,0,0,0,.38,1.24,1.31,1.31,0,0,0,1,.41,1.63,1.63,0,0,0,.61-.13,1.9,1.9,0,0,0,.58-.37,2.62,2.62,0,0,0,.45-.6,2.88,2.88,0,0,0,.3-.72,3.1,3.1,0,0,0,.17-1,1.74,1.74,0,0,0-.39-1.21,1.29,1.29,0,0,0-1-.42,1.59,1.59,0,0,0-.83.22,2.43,2.43,0,0,0-.69.64,2.88,2.88,0,0,0-.44,1A4.12,4.12,0,0,0,168.13,59.43ZM173,61.7l1.2-5.7h.88l-.21,1a4.07,4.07,0,0,1,1.07-.86,2.11,2.11,0,0,1,1-.27,1.49,1.49,0,0,1,1.07.38,1.26,1.26,0,0,1,.41,1,6,6,0,0,1-.14,1l-.73,3.45h-1l.76-3.61a3.71,3.71,0,0,0,.11-.78.56.56,0,0,0-.2-.45.75.75,0,0,0-.56-.19,1.85,1.85,0,0,0-1.33.55,3.4,3.4,0,0,0-.86,1.82L174,61.7Zm9.12,0,1.64-7.87H185l.8,5.1c.1.67.17,1.31.2,1.93a21.79,21.79,0,0,1,1.09-2.16l2.77-4.87h1.31l-1.64,7.87h-1l.83-3.83a30.07,30.07,0,0,1,.82-3,15.93,15.93,0,0,1-.83,1.65L186.4,61.7h-1l-.79-5.05c-.07-.46-.12-1-.16-1.62-.08.7-.17,1.25-.25,1.65l-1.05,5Zm12.74-.7a4.09,4.09,0,0,1-1,.62,2.39,2.39,0,0,1-1,.21,1.77,1.77,0,0,1-1.26-.46,1.57,1.57,0,0,1-.49-1.2,1.65,1.65,0,0,1,.8-1.42,2.26,2.26,0,0,1,.87-.33,10.12,10.12,0,0,1,1.24-.09,4.81,4.81,0,0,0,1.33-.21,2.66,2.66,0,0,0,.11-.65.67.67,0,0,0-.25-.54,1.6,1.6,0,0,0-1-.26,1.81,1.81,0,0,0-1,.26,1.48,1.48,0,0,0-.56.77l-1-.08a2.47,2.47,0,0,1,.93-1.29,2.8,2.8,0,0,1,1.66-.46,2.58,2.58,0,0,1,1.67.5,1.2,1.2,0,0,1,.49,1,4.27,4.27,0,0,1-.15,1L196,59.83a5.17,5.17,0,0,0-.15,1.09,3.53,3.53,0,0,0,.12.78h-1A3.12,3.12,0,0,1,194.84,61Zm.36-2.19a3.45,3.45,0,0,1-.46.12,4.85,4.85,0,0,1-.76.1,5.72,5.72,0,0,0-1.21.19,1,1,0,0,0-.53.37,1,1,0,0,0-.17.55.91.91,0,0,0,.28.67,1.12,1.12,0,0,0,.8.27,1.9,1.9,0,0,0,.92-.25,1.86,1.86,0,0,0,.7-.72A4.28,4.28,0,0,0,195.2,58.81ZM197,61.7l1.2-5.7H199l-.25,1.17a3.81,3.81,0,0,1,.86-1,1.49,1.49,0,0,1,.87-.31,1.67,1.67,0,0,1,.71.21l-.39.9a1,1,0,0,0-.57-.19,1.52,1.52,0,0,0-1,.58,4.36,4.36,0,0,0-.85,2.05l-.46,2.28Zm7.94-2.08,1,.1a3.31,3.31,0,0,1-1.05,1.59,2.48,2.48,0,0,1-1.53.52,2,2,0,0,1-1.51-.6,2.37,2.37,0,0,1-.57-1.69,4.8,4.8,0,0,1,.36-1.82,3,3,0,0,1,1.07-1.38,2.72,2.72,0,0,1,1.57-.47,2,2,0,0,1,1.46.52,1.8,1.8,0,0,1,.54,1.37l-1,.07A1.11,1.11,0,0,0,205,57a1.06,1.06,0,0,0-.81-.31,1.53,1.53,0,0,0-1,.37,2.5,2.5,0,0,0-.67,1.13,4.75,4.75,0,0,0-.25,1.45,1.62,1.62,0,0,0,.33,1.1,1,1,0,0,0,.8.36,1.4,1.4,0,0,0,.9-.36A2.33,2.33,0,0,0,204.92,59.62ZM207,61.7l1.65-7.87h1l-.62,3a3.42,3.42,0,0,1,1-.75,2.08,2.08,0,0,1,1-.24,1.5,1.5,0,0,1,1.09.38,1.26,1.26,0,0,1,.39,1,6.87,6.87,0,0,1-.17,1.1l-.7,3.37h-1l.72-3.45a6.69,6.69,0,0,0,.15-1,.54.54,0,0,0-.19-.43.73.73,0,0,0-.56-.19,2.07,2.07,0,0,0-1.75,1,6.22,6.22,0,0,0-.5,1.55L208,61.7Zm11.28,0,1.25-6a6.08,6.08,0,0,1-2.27,1l.19-.87a9.25,9.25,0,0,0,1.42-.75,6.15,6.15,0,0,0,1.07-.83,2.46,2.46,0,0,0,.4-.52h.58l-1.66,7.91Zm5.84-4.33a1.83,1.83,0,0,1-.67-.62,1.55,1.55,0,0,1-.22-.82,2,2,0,0,1,.52-1.31,2.31,2.31,0,0,1,1.87-.83,2.26,2.26,0,0,1,1.63.57,1.82,1.82,0,0,1,.26,2.39,2.06,2.06,0,0,1-1,.73,2.1,2.1,0,0,1,.68.63,2,2,0,0,1,.26,1,2.73,2.73,0,0,1-.75,1.89,2.55,2.55,0,0,1-2,.83,2.23,2.23,0,0,1-1.63-.61,2,2,0,0,1-.62-1.53,2.47,2.47,0,0,1,.43-1.48A2.26,2.26,0,0,1,224.1,57.37Zm.08-1.39a1.08,1.08,0,0,0,.31.81,1.26,1.26,0,0,0,.91.32,1.49,1.49,0,0,0,1.08-.41,1.33,1.33,0,0,0,.42-1,1.07,1.07,0,0,0-.33-.81,1.22,1.22,0,0,0-.89-.31,1.56,1.56,0,0,0-.8.2,1.18,1.18,0,0,0-.53.53A1.55,1.55,0,0,0,224.18,56Zm-.76,3.8a1.32,1.32,0,0,0,.15.62,1.28,1.28,0,0,0,.49.49,1.57,1.57,0,0,0,.73.17,1.49,1.49,0,0,0,1.28-.73,2.22,2.22,0,0,0,.39-1.25,1.2,1.2,0,0,0-.36-.91,1.29,1.29,0,0,0-.93-.34,1.66,1.66,0,0,0-1.25.54A2,2,0,0,0,223.42,59.78Zm4.79,1.92.24-1.09h1.11l-.21,1a2.64,2.64,0,0,1-.58,1.27,1.38,1.38,0,0,1-.89.46l.1-.42c.42-.12.71-.51.84-1.17Zm6,0a3.86,3.86,0,0,1,1.12-2.08c.3-.29.86-.77,1.71-1.44a10.38,10.38,0,0,0,1-.89,2.94,2.94,0,0,0,.59-.82,1.32,1.32,0,0,0,.13-.6,1.23,1.23,0,0,0-.39-.92,1.28,1.28,0,0,0-.94-.37,1.34,1.34,0,0,0-1,.39,2.25,2.25,0,0,0-.59,1.21L235,56a2.61,2.61,0,0,1,.82-1.64,2.46,2.46,0,0,1,1.68-.61,2.59,2.59,0,0,1,1.22.29,1.71,1.71,0,0,1,.81.78,2.07,2.07,0,0,1,.29,1,2.39,2.39,0,0,1-.57,1.5,14.08,14.08,0,0,1-2,1.78c-.48.39-.84.7-1.08.94a3.36,3.36,0,0,0-.53.69h3.53l-.19.89Zm6.14-2.58a7.29,7.29,0,0,1,.3-2,6.89,6.89,0,0,1,.65-1.64,4.05,4.05,0,0,1,.77-1,2.53,2.53,0,0,1,.76-.51,2,2,0,0,1,.85-.18,1.93,1.93,0,0,1,1.5.68,2.79,2.79,0,0,1,.61,1.93,8.11,8.11,0,0,1-.42,2.58A5,5,0,0,1,244,61.26a2.27,2.27,0,0,1-1.53.58,1.93,1.93,0,0,1-1.5-.69A3,3,0,0,1,240.4,59.12Zm.94.24a2.37,2.37,0,0,0,.23,1.14,1.08,1.08,0,0,0,1,.56,1.31,1.31,0,0,0,1-.52,4.54,4.54,0,0,0,1-2.09,10,10,0,0,0,.35-2.28,1.84,1.84,0,0,0-.33-1.22,1.09,1.09,0,0,0-.86-.37,1.35,1.35,0,0,0-.72.2,2,2,0,0,0-.64.67,6.83,6.83,0,0,0-.75,2A8.12,8.12,0,0,0,241.34,59.36Zm4.92,2.34a3.86,3.86,0,0,1,1.12-2.08c.3-.29.86-.77,1.71-1.44a10.38,10.38,0,0,0,1-.89,2.94,2.94,0,0,0,.59-.82,1.32,1.32,0,0,0,.13-.6,1.23,1.23,0,0,0-.39-.92,1.28,1.28,0,0,0-.94-.37,1.34,1.34,0,0,0-1,.39,2.25,2.25,0,0,0-.59,1.21L247,56a2.61,2.61,0,0,1,.82-1.64,2.46,2.46,0,0,1,1.68-.61,2.59,2.59,0,0,1,1.22.29,1.71,1.71,0,0,1,.81.78,2.07,2.07,0,0,1,.29,1,2.39,2.39,0,0,1-.57,1.5,14.08,14.08,0,0,1-2,1.78c-.48.39-.84.7-1.08.94a3.36,3.36,0,0,0-.53.69h3.53l-.19.89Zm8,0,1.25-6a6.08,6.08,0,0,1-2.27,1l.19-.87a9.25,9.25,0,0,0,1.42-.75,6.15,6.15,0,0,0,1.07-.83,2.46,2.46,0,0,0,.4-.52h.58l-1.66,7.91Zm10.58-.7a4.09,4.09,0,0,1-1,.62,2.39,2.39,0,0,1-1,.21,1.77,1.77,0,0,1-1.26-.46,1.57,1.57,0,0,1-.49-1.2,1.65,1.65,0,0,1,.8-1.42,2.26,2.26,0,0,1,.87-.33,10.12,10.12,0,0,1,1.24-.09,4.81,4.81,0,0,0,1.33-.21,2.66,2.66,0,0,0,.11-.65.67.67,0,0,0-.25-.54,1.6,1.6,0,0,0-1-.26,1.81,1.81,0,0,0-1,.26,1.48,1.48,0,0,0-.56.77l-1-.08a2.47,2.47,0,0,1,.93-1.29,2.8,2.8,0,0,1,1.66-.46,2.58,2.58,0,0,1,1.67.5,1.2,1.2,0,0,1,.49,1,4.27,4.27,0,0,1-.15,1L266,59.83a5.17,5.17,0,0,0-.15,1.09,3.53,3.53,0,0,0,.12.78h-1A3.12,3.12,0,0,1,264.84,61Zm.36-2.19a3.45,3.45,0,0,1-.46.12,4.85,4.85,0,0,1-.76.1,5.72,5.72,0,0,0-1.21.19,1,1,0,0,0-.53.37,1,1,0,0,0-.17.55.91.91,0,0,0,.28.67,1.12,1.12,0,0,0,.8.27,1.9,1.9,0,0,0,.92-.25,1.86,1.86,0,0,0,.7-.72A4.28,4.28,0,0,0,265.2,58.81ZM267,61.7l1.2-5.7h.88l-.21,1a4.07,4.07,0,0,1,1.07-.86,2.11,2.11,0,0,1,1-.27,1.49,1.49,0,0,1,1.07.38,1.26,1.26,0,0,1,.41,1,6,6,0,0,1-.14,1l-.73,3.45h-1l.76-3.61a3.71,3.71,0,0,0,.11-.78.56.56,0,0,0-.2-.45.75.75,0,0,0-.56-.19,1.85,1.85,0,0,0-1.33.55,3.4,3.4,0,0,0-.86,1.82L268,61.7Zm9.86-.83a2.39,2.39,0,0,1-1.75,1,1.76,1.76,0,0,1-1.36-.6,2.47,2.47,0,0,1-.53-1.73,4.28,4.28,0,0,1,.42-1.91,3.22,3.22,0,0,1,1.08-1.28,2.25,2.25,0,0,1,1.28-.44,1.74,1.74,0,0,1,1.61,1l.64-3.06h1l-1.64,7.87h-.89Zm-2.67-1.56a3.36,3.36,0,0,0,.1.94,1.4,1.4,0,0,0,.41.58,1.17,1.17,0,0,0,.69.21,1.54,1.54,0,0,0,1.2-.68,3.53,3.53,0,0,0,.72-2.25,1.45,1.45,0,0,0-.36-1,1.17,1.17,0,0,0-.89-.39,1.29,1.29,0,0,0-.64.16,1.72,1.72,0,0,0-.56.53,3.51,3.51,0,0,0-.49,1A3.31,3.31,0,0,0,274.17,59.31ZM284.9,61.7l.44-2h-3.22l.2-1,4.41-4.9h.79l-1,5h1.11l-.17.85h-1.11l-.43,2Zm.61-2.87.69-3.29-2.94,3.29Zm2,5.06L289.15,56h.91l-.18.79a3.29,3.29,0,0,1,.89-.71,1.87,1.87,0,0,1,.85-.21,1.71,1.71,0,0,1,1.34.6,2.35,2.35,0,0,1,.55,1.68,4.28,4.28,0,0,1-.3,1.64,3.89,3.89,0,0,1-.73,1.18,3.1,3.1,0,0,1-.86.65,2.09,2.09,0,0,1-.91.21,1.74,1.74,0,0,1-1.59-1l-.64,3.1Zm1.92-4.52a2.94,2.94,0,0,0,.09.89,1.28,1.28,0,0,0,.43.57,1.29,1.29,0,0,0,.72.2,1.52,1.52,0,0,0,1.35-.94,3.85,3.85,0,0,0,.52-1.92A1.66,1.66,0,0,0,292.2,57a1.11,1.11,0,0,0-.86-.39,1.31,1.31,0,0,0-.71.21,1.82,1.82,0,0,0-.57.57,3.9,3.9,0,0,0-.46,1A3.54,3.54,0,0,0,289.43,59.37ZM294,61.7l1.19-5.7h1l-.2.93a3.48,3.48,0,0,1,1-.82,1.8,1.8,0,0,1,.92-.24,1.45,1.45,0,0,1,.89.28,1.36,1.36,0,0,1,.47.78,3.16,3.16,0,0,1,.92-.79,2,2,0,0,1,1-.27,1.5,1.5,0,0,1,1.07.35,1.18,1.18,0,0,1,.36.93,5.57,5.57,0,0,1-.13.88l-.76,3.67h-1l.78-3.77a4,4,0,0,0,.09-.67.56.56,0,0,0-.17-.42.7.7,0,0,0-.5-.17,1.81,1.81,0,0,0-.89.26,2.07,2.07,0,0,0-.69.69,4.58,4.58,0,0,0-.44,1.31l-.59,2.77h-1l.81-3.84a2.84,2.84,0,0,0,.08-.57.64.64,0,0,0-.17-.45.63.63,0,0,0-.45-.17,1.87,1.87,0,0,0-.88.26,2.16,2.16,0,0,0-.73.74,4.22,4.22,0,0,0-.47,1.33L295,61.7Zm12.17-2.17a4,4,0,0,1,1-2.77,2.77,2.77,0,0,1,2.13-.89,2.25,2.25,0,0,1,1.66.64,2.39,2.39,0,0,1,.64,1.74,4.23,4.23,0,0,1-.41,1.83,3,3,0,0,1-2.66,1.75,2.64,2.64,0,0,1-1.22-.29,2,2,0,0,1-.84-.79A2.55,2.55,0,0,1,306.15,59.53Zm1-.1a1.8,1.8,0,0,0,.38,1.24,1.31,1.31,0,0,0,1,.41,1.63,1.63,0,0,0,.61-.13,1.9,1.9,0,0,0,.58-.37,2.62,2.62,0,0,0,.45-.6,2.88,2.88,0,0,0,.3-.72,3.1,3.1,0,0,0,.17-1,1.74,1.74,0,0,0-.39-1.21,1.29,1.29,0,0,0-1-.42,1.59,1.59,0,0,0-.83.22,2.43,2.43,0,0,0-.69.64,2.88,2.88,0,0,0-.44,1A4.12,4.12,0,0,0,307.13,59.43ZM312,61.7l1.2-5.7h.88l-.21,1a4.07,4.07,0,0,1,1.07-.86,2.11,2.11,0,0,1,1-.27,1.49,1.49,0,0,1,1.07.38,1.26,1.26,0,0,1,.41,1,6,6,0,0,1-.14,1l-.73,3.45h-1l.76-3.61a3.71,3.71,0,0,0,.11-.78.56.56,0,0,0-.2-.45.75.75,0,0,0-.56-.19,1.85,1.85,0,0,0-1.33.55,3.4,3.4,0,0,0-.86,1.82L313,61.7Zm9.12,0,1.64-7.87H324l.8,5.1c.1.67.17,1.31.2,1.93a21.79,21.79,0,0,1,1.09-2.16l2.77-4.87h1.31l-1.64,7.87h-1.05l.83-3.83a30.07,30.07,0,0,1,.82-3,15.93,15.93,0,0,1-.83,1.65L325.4,61.7h-1l-.79-5.05c-.07-.46-.12-1-.16-1.62-.08.7-.17,1.25-.25,1.65l-1.05,5Zm12.74-.7a4.09,4.09,0,0,1-1,.62,2.39,2.39,0,0,1-1,.21,1.77,1.77,0,0,1-1.26-.46,1.57,1.57,0,0,1-.49-1.2,1.65,1.65,0,0,1,.8-1.42,2.26,2.26,0,0,1,.87-.33,10.12,10.12,0,0,1,1.24-.09,4.81,4.81,0,0,0,1.33-.21,2.66,2.66,0,0,0,.11-.65.67.67,0,0,0-.25-.54,1.6,1.6,0,0,0-1-.26,1.81,1.81,0,0,0-1,.26,1.48,1.48,0,0,0-.56.77l-1-.08a2.47,2.47,0,0,1,.93-1.29,2.8,2.8,0,0,1,1.66-.46,2.58,2.58,0,0,1,1.67.5,1.2,1.2,0,0,1,.49,1,4.27,4.27,0,0,1-.15,1L335,59.83a5.17,5.17,0,0,0-.15,1.09,3.53,3.53,0,0,0,.12.78h-1A3.12,3.12,0,0,1,333.84,61Zm.36-2.19a3.45,3.45,0,0,1-.46.12,4.85,4.85,0,0,1-.76.1,5.72,5.72,0,0,0-1.21.19,1,1,0,0,0-.53.37,1,1,0,0,0-.17.55.91.91,0,0,0,.28.67,1.12,1.12,0,0,0,.8.27,1.9,1.9,0,0,0,.92-.25,1.86,1.86,0,0,0,.7-.72A4.28,4.28,0,0,0,334.2,58.81ZM336,61.7l1.2-5.7H338l-.25,1.17a3.81,3.81,0,0,1,.86-1,1.49,1.49,0,0,1,.87-.31,1.67,1.67,0,0,1,.71.21l-.39.9a1,1,0,0,0-.57-.19,1.52,1.52,0,0,0-1,.58,4.36,4.36,0,0,0-.85,2.05l-.46,2.28Zm7.94-2.08,1,.1a3.31,3.31,0,0,1-1,1.59,2.48,2.48,0,0,1-1.53.52,2,2,0,0,1-1.51-.6,2.37,2.37,0,0,1-.57-1.69,4.8,4.8,0,0,1,.36-1.82,3,3,0,0,1,1.07-1.38,2.72,2.72,0,0,1,1.57-.47,2,2,0,0,1,1.46.52,1.8,1.8,0,0,1,.54,1.37l-1,.07A1.11,1.11,0,0,0,344,57a1.06,1.06,0,0,0-.81-.31,1.53,1.53,0,0,0-1,.37,2.5,2.5,0,0,0-.67,1.13,4.75,4.75,0,0,0-.25,1.45,1.62,1.62,0,0,0,.33,1.1,1,1,0,0,0,.8.36,1.4,1.4,0,0,0,.9-.36A2.33,2.33,0,0,0,343.92,59.62ZM346,61.7l1.65-7.87h1l-.62,3a3.42,3.42,0,0,1,1-.75,2.08,2.08,0,0,1,1-.24,1.5,1.5,0,0,1,1.09.38,1.26,1.26,0,0,1,.39,1,6.87,6.87,0,0,1-.17,1.1l-.7,3.37h-1l.72-3.45a6.69,6.69,0,0,0,.15-1,.54.54,0,0,0-.19-.43.73.73,0,0,0-.56-.19,2.07,2.07,0,0,0-1.75,1,6.22,6.22,0,0,0-.5,1.55L347,61.7Zm11.28,0,1.25-6a6.08,6.08,0,0,1-2.27,1l.19-.87a9.25,9.25,0,0,0,1.42-.75,6.15,6.15,0,0,0,1.07-.83,2.46,2.46,0,0,0,.4-.52h.58l-1.66,7.91Zm4.09-1.81.92-.08a1.68,1.68,0,0,0,.38.94,1,1,0,0,0,.67.28,1.44,1.44,0,0,0,1.05-.49,4.36,4.36,0,0,0,1-2,3.94,3.94,0,0,1-.88.53,2,2,0,0,1-.76.15,2,2,0,0,1-1.3-.48,2.23,2.23,0,0,1-.75-1.81,3.21,3.21,0,0,1,.88-2.28,2.38,2.38,0,0,1,1.83-.82,2.08,2.08,0,0,1,1.62.72,3,3,0,0,1,.64,2.05,7.9,7.9,0,0,1-.42,2.53,4.69,4.69,0,0,1-1.39,2.17,2.43,2.43,0,0,1-1.6.58,1.82,1.82,0,0,1-1.32-.5A2.2,2.2,0,0,1,361.35,59.89Zm1.3-3.11A1.74,1.74,0,0,0,363,58a1.26,1.26,0,0,0,.95.43,1.42,1.42,0,0,0,.78-.26,2.21,2.21,0,0,0,.69-.83,2.33,2.33,0,0,0,.3-1.13,1.74,1.74,0,0,0-.19-.82,1.27,1.27,0,0,0-.51-.58,1.21,1.21,0,0,0-.66-.2,1.25,1.25,0,0,0-.64.17,1.91,1.91,0,0,0-.58.5,2.42,2.42,0,0,0-.41.76A3,3,0,0,0,362.65,56.78Zm4.56,4.92.24-1.09h1.11l-.21,1a2.64,2.64,0,0,1-.58,1.27,1.38,1.38,0,0,1-.89.46l.1-.42c.42-.12.71-.51.84-1.17Zm6.05,0a3.86,3.86,0,0,1,1.12-2.08c.3-.29.86-.77,1.71-1.44a10.38,10.38,0,0,0,1-.89,2.94,2.94,0,0,0,.59-.82,1.32,1.32,0,0,0,.13-.6,1.23,1.23,0,0,0-.39-.92,1.28,1.28,0,0,0-.94-.37,1.34,1.34,0,0,0-1,.39,2.25,2.25,0,0,0-.59,1.21L374,56a2.61,2.61,0,0,1,.82-1.64,2.46,2.46,0,0,1,1.68-.61,2.59,2.59,0,0,1,1.22.29,1.71,1.71,0,0,1,.81.78,2.07,2.07,0,0,1,.29,1,2.39,2.39,0,0,1-.57,1.5,14.08,14.08,0,0,1-2,1.78c-.48.39-.84.7-1.08.94a3.36,3.36,0,0,0-.53.69h3.53l-.19.89Zm6.14-2.58a7.29,7.29,0,0,1,.3-2,6.89,6.89,0,0,1,.65-1.64,4.05,4.05,0,0,1,.77-1,2.53,2.53,0,0,1,.76-.51,2,2,0,0,1,.85-.18,1.93,1.93,0,0,1,1.5.68,2.79,2.79,0,0,1,.61,1.93,8.11,8.11,0,0,1-.42,2.58A5,5,0,0,1,383,61.26a2.27,2.27,0,0,1-1.53.58,1.93,1.93,0,0,1-1.5-.69A3,3,0,0,1,379.4,59.12Zm.94.24a2.37,2.37,0,0,0,.23,1.14,1.08,1.08,0,0,0,1,.56,1.31,1.31,0,0,0,1-.52,4.54,4.54,0,0,0,1-2.09,10,10,0,0,0,.35-2.28,1.84,1.84,0,0,0-.33-1.22,1.09,1.09,0,0,0-.86-.37,1.35,1.35,0,0,0-.72.2,2,2,0,0,0-.64.67,6.83,6.83,0,0,0-.75,2A8.12,8.12,0,0,0,380.34,59.36Zm4.92,2.34a3.86,3.86,0,0,1,1.12-2.08c.3-.29.86-.77,1.71-1.44a10.38,10.38,0,0,0,1-.89,2.94,2.94,0,0,0,.59-.82,1.32,1.32,0,0,0,.13-.6,1.23,1.23,0,0,0-.39-.92,1.28,1.28,0,0,0-.94-.37,1.34,1.34,0,0,0-1,.39,2.25,2.25,0,0,0-.59,1.21L386,56a2.61,2.61,0,0,1,.82-1.64,2.46,2.46,0,0,1,1.68-.61,2.59,2.59,0,0,1,1.22.29,1.71,1.71,0,0,1,.81.78,2.07,2.07,0,0,1,.29,1,2.39,2.39,0,0,1-.57,1.5,14.08,14.08,0,0,1-2,1.78c-.48.39-.84.7-1.08.94a3.36,3.36,0,0,0-.53.69h3.53l-.19.89Zm8,0,1.25-6a6.08,6.08,0,0,1-2.27,1l.19-.87a9.25,9.25,0,0,0,1.42-.75,6.15,6.15,0,0,0,1.07-.83,2.46,2.46,0,0,0,.4-.52h.58l-1.66,7.91Zm6.86,0,1.64-7.87h5.69l-.19.89h-4.63l-.51,2.45h4.5l-.19.91h-4.51l-.57,2.73h5l-.19.89Zm7.28-2.55,1-.09v.27a1.68,1.68,0,0,0,.2.84,1.43,1.43,0,0,0,.7.59,2.83,2.83,0,0,0,1.14.21,2.19,2.19,0,0,0,1.44-.41,1.24,1.24,0,0,0,.5-1,1,1,0,0,0-.27-.69,4.76,4.76,0,0,0-1.45-.81,10.05,10.05,0,0,1-1.28-.63,2.45,2.45,0,0,1-.78-.75,1.72,1.72,0,0,1-.25-.94,1.89,1.89,0,0,1,.33-1.09,2.09,2.09,0,0,1,1-.75,3.7,3.7,0,0,1,1.44-.27,3.57,3.57,0,0,1,1.62.33,2.17,2.17,0,0,1,1,.86,2.12,2.12,0,0,1,.3,1s0,.09,0,.16l-1,.08a2.34,2.34,0,0,0-.05-.52,1.25,1.25,0,0,0-.34-.54,1.5,1.5,0,0,0-.63-.38,2.65,2.65,0,0,0-.87-.14,2.11,2.11,0,0,0-1.35.39,1,1,0,0,0-.36.78,1,1,0,0,0,.14.53,1.76,1.76,0,0,0,.55.44c.19.1.63.31,1.33.63a7.53,7.53,0,0,1,1.17.59,2,2,0,0,1,.66.69,1.85,1.85,0,0,1,.23.92,2,2,0,0,1-.39,1.19,2.51,2.51,0,0,1-1.08.82,3.88,3.88,0,0,1-1.56.3,3.78,3.78,0,0,1-2.19-.58A2.4,2.4,0,0,1,407.4,59.15Zm8.72,2.55,1.45-7H415l.19-.89h6.19l-.19.89h-2.56l-1.45,7Zm5.09,0,.24-1.09h1.11l-.21,1a2.64,2.64,0,0,1-.58,1.27,1.38,1.38,0,0,1-.89.46l.1-.42c.42-.12.71-.51.84-1.17Zm5.77,0,1.2-5.7H429l-.25,1.17a3.81,3.81,0,0,1,.86-1,1.49,1.49,0,0,1,.87-.31,1.67,1.67,0,0,1,.71.21l-.39.9a1,1,0,0,0-.57-.19,1.52,1.52,0,0,0-1,.58,4.36,4.36,0,0,0-.85,2.05l-.46,2.28Zm8.2-1.94.94.1a2.93,2.93,0,0,1-.94,1.34,2.6,2.6,0,0,1-1.75.63,2.43,2.43,0,0,1-1.16-.29,1.93,1.93,0,0,1-.81-.86,2.72,2.72,0,0,1-.28-1.26,4,4,0,0,1,.44-1.81,3.08,3.08,0,0,1,1.12-1.32,2.82,2.82,0,0,1,1.49-.42,2.15,2.15,0,0,1,1.62.64,2.35,2.35,0,0,1,.61,1.72,6.33,6.33,0,0,1-.06.86h-4.2a1.78,1.78,0,0,0,0,.3,1.83,1.83,0,0,0,.35,1.22,1.19,1.19,0,0,0,.91.42,1.77,1.77,0,0,0,1-.33A2.25,2.25,0,0,0,435.18,59.76Zm-2.83-1.42h3.21v-.2a1.57,1.57,0,0,0-.38-1.13,1.21,1.21,0,0,0-.94-.39,1.71,1.71,0,0,0-1.12.44A2.49,2.49,0,0,0,432.35,58.34ZM440.84,61a4.09,4.09,0,0,1-1,.62,2.39,2.39,0,0,1-1,.21,1.77,1.77,0,0,1-1.26-.46,1.57,1.57,0,0,1-.49-1.2,1.65,1.65,0,0,1,.8-1.42,2.26,2.26,0,0,1,.87-.33,10.12,10.12,0,0,1,1.24-.09,4.81,4.81,0,0,0,1.33-.21,2.66,2.66,0,0,0,.11-.65.67.67,0,0,0-.25-.54,1.6,1.6,0,0,0-1-.26,1.81,1.81,0,0,0-1,.26,1.48,1.48,0,0,0-.56.77l-1-.08a2.47,2.47,0,0,1,.93-1.29,2.8,2.8,0,0,1,1.66-.46,2.58,2.58,0,0,1,1.67.5,1.2,1.2,0,0,1,.49,1,4.27,4.27,0,0,1-.15,1L442,59.83a5.17,5.17,0,0,0-.15,1.09,3.53,3.53,0,0,0,.12.78h-1A3.12,3.12,0,0,1,440.84,61Zm.36-2.19a3.45,3.45,0,0,1-.46.12,4.85,4.85,0,0,1-.76.1,5.72,5.72,0,0,0-1.21.19,1,1,0,0,0-.53.37,1,1,0,0,0-.17.55.91.91,0,0,0,.28.67,1.12,1.12,0,0,0,.8.27,1.9,1.9,0,0,0,.92-.25,1.86,1.86,0,0,0,.7-.72A4.28,4.28,0,0,0,441.2,58.81Zm5.64,2.06a2.39,2.39,0,0,1-1.75,1,1.76,1.76,0,0,1-1.36-.6,2.47,2.47,0,0,1-.53-1.73,4.28,4.28,0,0,1,.42-1.91,3.22,3.22,0,0,1,1.08-1.28,2.25,2.25,0,0,1,1.28-.44,1.74,1.74,0,0,1,1.61,1l.64-3.06h1l-1.64,7.87h-.89Zm-2.67-1.56a3.36,3.36,0,0,0,.1.94,1.4,1.4,0,0,0,.41.58,1.17,1.17,0,0,0,.69.21,1.54,1.54,0,0,0,1.2-.68,3.53,3.53,0,0,0,.72-2.25,1.45,1.45,0,0,0-.36-1,1.17,1.17,0,0,0-.89-.39,1.29,1.29,0,0,0-.64.16,1.72,1.72,0,0,0-.56.53,3.51,3.51,0,0,0-.49,1A3.31,3.31,0,0,0,444.17,59.31Zm6.2-4.38.23-1.1h1l-.24,1.1Zm-3.08,8.91.17-.83a2,2,0,0,0,.6.1.61.61,0,0,0,.48-.21,2.83,2.83,0,0,0,.39-1.15l1.2-5.75h1l-1.23,5.93a4.56,4.56,0,0,1-.53,1.52,1.35,1.35,0,0,1-1.13.53A3.81,3.81,0,0,1,447.29,63.84Zm7.59-3.17a2.89,2.89,0,0,1-2.11,1.16,1.51,1.51,0,0,1-1.06-.38,1.21,1.21,0,0,1-.4-.92,7.29,7.29,0,0,1,.18-1.24l.69-3.29h1l-.77,3.64a4.07,4.07,0,0,0-.09.72.68.68,0,0,0,.19.5.89.89,0,0,0,.58.17,1.67,1.67,0,0,0,.79-.19,2,2,0,0,0,.67-.53,2.92,2.92,0,0,0,.47-.81,8.15,8.15,0,0,0,.27-1l.51-2.47h1l-1.2,5.7h-.89Zm2.19-.92,1-.07a1.69,1.69,0,0,0,.13.72,1.08,1.08,0,0,0,.48.49,1.73,1.73,0,0,0,.81.19,1.57,1.57,0,0,0,1-.25.75.75,0,0,0,.14-1.1,3.48,3.48,0,0,0-1-.55c-.51-.22-.84-.38-1-.46a1.59,1.59,0,0,1-.54-.52,1.23,1.23,0,0,1-.19-.69,1.51,1.51,0,0,1,.53-1.15,2.17,2.17,0,0,1,1.52-.49,2.44,2.44,0,0,1,1.64.5,1.68,1.68,0,0,1,.57,1.3l-.95.06a1.06,1.06,0,0,0-.36-.81,1.43,1.43,0,0,0-1-.3,1.17,1.17,0,0,0-.79.24.62.62,0,0,0-.27.5.64.64,0,0,0,.23.47,4.15,4.15,0,0,0,.83.42,5.62,5.62,0,0,1,1.41.76,1.48,1.48,0,0,1,.47,1.1,1.46,1.46,0,0,1-.27.82,1.7,1.7,0,0,1-.79.66,3.06,3.06,0,0,1-1.25.24,2.93,2.93,0,0,1-1.69-.49A1.74,1.74,0,0,1,457.07,59.75Zm8.19,1.15-.17.8a2.69,2.69,0,0,1-.67.09,1.41,1.41,0,0,1-.93-.28.75.75,0,0,1-.25-.59,5.64,5.64,0,0,1,.13-.86l.7-3.31h-.76l.15-.75h.77l.29-1.41,1.11-.67L465.2,56h.95l-.16.75H465l-.66,3.15a6,6,0,0,0-.12.72.37.37,0,0,0,.09.27.52.52,0,0,0,.33.09A1.73,1.73,0,0,0,465.26,60.9Zm4.92-1.14.94.1a2.93,2.93,0,0,1-.94,1.34,2.6,2.6,0,0,1-1.75.63,2.43,2.43,0,0,1-1.16-.29,1.93,1.93,0,0,1-.81-.86,2.72,2.72,0,0,1-.28-1.26,4,4,0,0,1,.44-1.81,3.08,3.08,0,0,1,1.12-1.32,2.82,2.82,0,0,1,1.49-.42,2.15,2.15,0,0,1,1.62.64,2.35,2.35,0,0,1,.61,1.72,6.33,6.33,0,0,1-.06.86h-4.2a1.78,1.78,0,0,0,0,.3,1.83,1.83,0,0,0,.35,1.22,1.19,1.19,0,0,0,.91.42,1.77,1.77,0,0,0,1-.33A2.25,2.25,0,0,0,470.18,59.76Zm-2.83-1.42h3.21v-.2a1.57,1.57,0,0,0-.38-1.13,1.21,1.21,0,0,0-.94-.39,1.71,1.71,0,0,0-1.12.44A2.49,2.49,0,0,0,467.35,58.34Zm8.49,2.53a2.39,2.39,0,0,1-1.75,1,1.76,1.76,0,0,1-1.36-.6,2.47,2.47,0,0,1-.53-1.73,4.28,4.28,0,0,1,.42-1.91,3.22,3.22,0,0,1,1.08-1.28,2.25,2.25,0,0,1,1.28-.44,1.74,1.74,0,0,1,1.61,1l.64-3.06h1l-1.64,7.87h-.89Zm-2.67-1.56a3.36,3.36,0,0,0,.1.94,1.4,1.4,0,0,0,.41.58,1.17,1.17,0,0,0,.69.21,1.54,1.54,0,0,0,1.2-.68,3.53,3.53,0,0,0,.72-2.25,1.45,1.45,0,0,0-.36-1,1.17,1.17,0,0,0-.89-.39,1.29,1.29,0,0,0-.64.16,1.72,1.72,0,0,0-.56.53,3.51,3.51,0,0,0-.49,1A3.31,3.31,0,0,0,473.17,59.31Zm10.09,1.59-.17.8a2.69,2.69,0,0,1-.67.09,1.41,1.41,0,0,1-.93-.28.75.75,0,0,1-.25-.59,5.64,5.64,0,0,1,.13-.86l.7-3.31h-.76l.15-.75h.77l.29-1.41,1.11-.67L483.2,56h.95l-.16.75H483l-.66,3.15a6,6,0,0,0-.12.72.37.37,0,0,0,.09.27.52.52,0,0,0,.33.09A1.73,1.73,0,0,0,483.26,60.9Zm.89-1.37a4,4,0,0,1,1-2.77,2.77,2.77,0,0,1,2.13-.89,2.25,2.25,0,0,1,1.66.64,2.39,2.39,0,0,1,.64,1.74,4.23,4.23,0,0,1-.41,1.83,3,3,0,0,1-2.66,1.75,2.64,2.64,0,0,1-1.22-.29,2,2,0,0,1-.84-.79A2.55,2.55,0,0,1,484.15,59.53Zm1-.1a1.8,1.8,0,0,0,.38,1.24,1.31,1.31,0,0,0,1,.41,1.63,1.63,0,0,0,.61-.13,1.9,1.9,0,0,0,.58-.37,2.62,2.62,0,0,0,.45-.6,2.88,2.88,0,0,0,.3-.72,3.1,3.1,0,0,0,.17-1,1.74,1.74,0,0,0-.39-1.21,1.29,1.29,0,0,0-1-.42,1.59,1.59,0,0,0-.83.22,2.43,2.43,0,0,0-.69.64,2.88,2.88,0,0,0-.44,1A4.12,4.12,0,0,0,485.13,59.43Zm7.94.32,1-.07a1.69,1.69,0,0,0,.13.72,1.08,1.08,0,0,0,.48.49,1.73,1.73,0,0,0,.81.19,1.57,1.57,0,0,0,1-.25.75.75,0,0,0,.14-1.1,3.48,3.48,0,0,0-1-.55c-.51-.22-.84-.38-1-.46a1.59,1.59,0,0,1-.54-.52,1.23,1.23,0,0,1-.19-.69,1.51,1.51,0,0,1,.53-1.15,2.17,2.17,0,0,1,1.52-.49,2.44,2.44,0,0,1,1.64.5,1.68,1.68,0,0,1,.57,1.3l-.95.06a1.06,1.06,0,0,0-.36-.81,1.43,1.43,0,0,0-1-.3,1.17,1.17,0,0,0-.79.24.62.62,0,0,0-.27.5.64.64,0,0,0,.23.47,4.15,4.15,0,0,0,.83.42,5.62,5.62,0,0,1,1.41.76,1.48,1.48,0,0,1,.47,1.1,1.46,1.46,0,0,1-.27.82,1.7,1.7,0,0,1-.79.66,3.06,3.06,0,0,1-1.25.24,2.93,2.93,0,0,1-1.69-.49A1.74,1.74,0,0,1,493.07,59.75Zm8.19,1.15-.17.8a2.69,2.69,0,0,1-.67.09,1.41,1.41,0,0,1-.93-.28.75.75,0,0,1-.25-.59,5.64,5.64,0,0,1,.13-.86l.7-3.31h-.76l.15-.75h.77l.29-1.41,1.11-.67L501.2,56h.95l-.16.75H501l-.66,3.15a6,6,0,0,0-.12.72.37.37,0,0,0,.09.27.52.52,0,0,0,.33.09A1.73,1.73,0,0,0,501.26,60.9Zm4.58.1a4.09,4.09,0,0,1-1,.62,2.39,2.39,0,0,1-1,.21,1.77,1.77,0,0,1-1.26-.46,1.57,1.57,0,0,1-.49-1.2,1.65,1.65,0,0,1,.8-1.42,2.26,2.26,0,0,1,.87-.33,10.12,10.12,0,0,1,1.24-.09,4.81,4.81,0,0,0,1.33-.21,2.66,2.66,0,0,0,.11-.65.67.67,0,0,0-.25-.54,1.6,1.6,0,0,0-1-.26,1.81,1.81,0,0,0-1,.26,1.48,1.48,0,0,0-.56.77l-1-.08a2.47,2.47,0,0,1,.93-1.29,2.8,2.8,0,0,1,1.66-.46,2.58,2.58,0,0,1,1.67.5,1.2,1.2,0,0,1,.49,1,4.27,4.27,0,0,1-.15,1L507,59.83a5.17,5.17,0,0,0-.15,1.09,3.53,3.53,0,0,0,.12.78h-1A3.12,3.12,0,0,1,505.84,61Zm.36-2.19a3.45,3.45,0,0,1-.46.12,4.85,4.85,0,0,1-.76.1,5.72,5.72,0,0,0-1.21.19,1,1,0,0,0-.53.37,1,1,0,0,0-.17.55.91.91,0,0,0,.28.67,1.12,1.12,0,0,0,.8.27,1.9,1.9,0,0,0,.92-.25,1.86,1.86,0,0,0,.7-.72A4.28,4.28,0,0,0,506.2,58.81ZM508,61.7l1.2-5.7H510l-.25,1.17a3.81,3.81,0,0,1,.86-1,1.49,1.49,0,0,1,.87-.31,1.67,1.67,0,0,1,.71.21l-.39.9a1,1,0,0,0-.57-.19,1.52,1.52,0,0,0-1,.58,4.36,4.36,0,0,0-.85,2.05l-.46,2.28Zm6.28-.8-.17.8a2.69,2.69,0,0,1-.67.09,1.41,1.41,0,0,1-.93-.28.75.75,0,0,1-.25-.59,5.64,5.64,0,0,1,.13-.86l.7-3.31h-.76l.15-.75h.77l.29-1.41,1.11-.67L514.2,56h.95l-.16.75h-1l-.66,3.15a6,6,0,0,0-.12.72.37.37,0,0,0,.09.27.52.52,0,0,0,.33.09A1.73,1.73,0,0,0,514.26,60.9Zm7.58.1a4.09,4.09,0,0,1-1,.62,2.39,2.39,0,0,1-1,.21,1.77,1.77,0,0,1-1.26-.46,1.57,1.57,0,0,1-.49-1.2,1.65,1.65,0,0,1,.8-1.42,2.26,2.26,0,0,1,.87-.33,10.12,10.12,0,0,1,1.24-.09,4.81,4.81,0,0,0,1.33-.21,2.66,2.66,0,0,0,.11-.65.67.67,0,0,0-.25-.54,1.6,1.6,0,0,0-1-.26,1.81,1.81,0,0,0-1,.26,1.48,1.48,0,0,0-.56.77l-1-.08a2.47,2.47,0,0,1,.93-1.29,2.8,2.8,0,0,1,1.66-.46,2.58,2.58,0,0,1,1.67.5,1.2,1.2,0,0,1,.49,1,4.27,4.27,0,0,1-.15,1L523,59.83a5.17,5.17,0,0,0-.15,1.09,3.53,3.53,0,0,0,.12.78h-1A3.12,3.12,0,0,1,521.84,61Zm.36-2.19a3.45,3.45,0,0,1-.46.12,4.85,4.85,0,0,1-.76.1,5.72,5.72,0,0,0-1.21.19,1,1,0,0,0-.53.37,1,1,0,0,0-.17.55.91.91,0,0,0,.28.67,1.12,1.12,0,0,0,.8.27,1.9,1.9,0,0,0,.92-.25,1.86,1.86,0,0,0,.7-.72A4.28,4.28,0,0,0,522.2,58.81Zm4.06,2.09-.17.8a2.69,2.69,0,0,1-.67.09,1.41,1.41,0,0,1-.93-.28.75.75,0,0,1-.25-.59,5.64,5.64,0,0,1,.13-.86l.7-3.31h-.76l.15-.75h.77l.29-1.41,1.11-.67L526.2,56h.95l-.16.75h-1l-.66,3.15a6,6,0,0,0-.12.72.37.37,0,0,0,.09.27.52.52,0,0,0,.33.09A1.73,1.73,0,0,0,526.26,60.9Zm3.72.8,1.19-5.7h1l-.2.93a3.48,3.48,0,0,1,1-.82,1.8,1.8,0,0,1,.92-.24,1.45,1.45,0,0,1,.89.28,1.36,1.36,0,0,1,.47.78,3.16,3.16,0,0,1,.92-.79,2,2,0,0,1,1-.27,1.5,1.5,0,0,1,1.07.35,1.18,1.18,0,0,1,.36.93,5.57,5.57,0,0,1-.13.88l-.76,3.67h-1l.78-3.77a4,4,0,0,0,.09-.67.56.56,0,0,0-.17-.42.7.7,0,0,0-.5-.17,1.81,1.81,0,0,0-.89.26,2.07,2.07,0,0,0-.69.69,4.58,4.58,0,0,0-.44,1.31l-.59,2.77h-1l.81-3.84a2.84,2.84,0,0,0,.08-.57.64.64,0,0,0-.17-.45.63.63,0,0,0-.45-.17,1.87,1.87,0,0,0-.88.26,2.16,2.16,0,0,0-.73.74,4.22,4.22,0,0,0-.47,1.33L531,61.7Zm10.39-6.77.23-1.1h1l-.22,1.1ZM539,61.7l1.18-5.7h1l-1.2,5.7Zm5.89-.83a2.39,2.39,0,0,1-1.75,1,1.76,1.76,0,0,1-1.36-.6,2.47,2.47,0,0,1-.53-1.73,4.28,4.28,0,0,1,.42-1.91,3.22,3.22,0,0,1,1.08-1.28,2.25,2.25,0,0,1,1.28-.44,1.74,1.74,0,0,1,1.61,1l.64-3.06h1l-1.64,7.87h-.89Zm-2.67-1.56a3.36,3.36,0,0,0,.1.94,1.4,1.4,0,0,0,.41.58,1.17,1.17,0,0,0,.69.21,1.54,1.54,0,0,0,1.2-.68,3.53,3.53,0,0,0,.72-2.25,1.45,1.45,0,0,0-.36-1,1.17,1.17,0,0,0-.89-.39,1.29,1.29,0,0,0-.64.16,1.72,1.72,0,0,0-.56.53,3.51,3.51,0,0,0-.49,1A3.31,3.31,0,0,0,542.17,59.31ZM547,61.7l1.2-5.7h.88l-.21,1a4.07,4.07,0,0,1,1.07-.86,2.11,2.11,0,0,1,1-.27,1.49,1.49,0,0,1,1.07.38,1.26,1.26,0,0,1,.41,1,6,6,0,0,1-.14,1l-.73,3.45h-1l.76-3.61a3.71,3.71,0,0,0,.11-.78.56.56,0,0,0-.2-.45.75.75,0,0,0-.56-.19,1.85,1.85,0,0,0-1.33.55,3.4,3.4,0,0,0-.86,1.82L548,61.7Zm7.39-6.77.23-1.1h1l-.22,1.1ZM553,61.7l1.18-5.7h1l-1.2,5.7Zm2,.52,1,.09a.81.81,0,0,0,.07.48.61.61,0,0,0,.3.27,2,2,0,0,0,1.94-.33,3.43,3.43,0,0,0,.47-1.34l.09-.46a2.25,2.25,0,0,1-1.61.77,1.94,1.94,0,0,1-1.45-.62,2.62,2.62,0,0,1-.58-1.82,3.52,3.52,0,0,1,.45-1.76,3.56,3.56,0,0,1,1.1-1.22,2.4,2.4,0,0,1,1.31-.41,1.91,1.91,0,0,1,1.73,1.06l.19-.93h.89l-1.14,5.5a4.18,4.18,0,0,1-.5,1.4,2,2,0,0,1-.84.8,2.73,2.73,0,0,1-1.27.28,3.3,3.3,0,0,1-1.19-.19,1.47,1.47,0,0,1-.73-.51,1.23,1.23,0,0,1-.25-.77A1.5,1.5,0,0,1,554.93,62.22Zm1.22-3a2.84,2.84,0,0,0,.11.89,1.27,1.27,0,0,0,.45.62,1.08,1.08,0,0,0,.67.22,1.66,1.66,0,0,0,.94-.32,2.33,2.33,0,0,0,.77-1,3.61,3.61,0,0,0,.29-1.35,1.52,1.52,0,0,0-.39-1.1,1.21,1.21,0,0,0-1-.43,1.5,1.5,0,0,0-.7.19,2.07,2.07,0,0,0-.61.58,2.82,2.82,0,0,0-.44.94A3.77,3.77,0,0,0,556.15,59.17ZM561,61.7l1.65-7.87h1l-.62,3a3.42,3.42,0,0,1,1-.75,2.08,2.08,0,0,1,1-.24,1.5,1.5,0,0,1,1.09.38,1.26,1.26,0,0,1,.39,1,6.87,6.87,0,0,1-.17,1.1l-.7,3.37h-1l.72-3.45a6.69,6.69,0,0,0,.15-1,.54.54,0,0,0-.19-.43.73.73,0,0,0-.56-.19,2.07,2.07,0,0,0-1.75,1,6.22,6.22,0,0,0-.5,1.55L562,61.7Zm8.28-.8-.17.8a2.69,2.69,0,0,1-.67.09,1.41,1.41,0,0,1-.93-.28.75.75,0,0,1-.25-.59,5.64,5.64,0,0,1,.13-.86l.7-3.31h-.76l.15-.75h.77l.29-1.41,1.11-.67L569.2,56h.95l-.16.75h-1l-.66,3.15a6,6,0,0,0-.12.72.37.37,0,0,0,.09.27.52.52,0,0,0,.33.09A1.73,1.73,0,0,0,569.26,60.9Z"/><path class="cls-8" d="M21.15,39.2V24.89h1.94L30.6,36.12V24.89h1.82V39.2H30.48L23,28V39.2Zm20.58,0V37.67a3.76,3.76,0,0,1-3.28,1.76,4.26,4.26,0,0,1-1.72-.34,3,3,0,0,1-1.19-.89A3.31,3.31,0,0,1,35,36.89a9,9,0,0,1-.11-1.64V28.83h1.75v5.75a10.33,10.33,0,0,0,.11,1.85,1.92,1.92,0,0,0,.7,1.1,2.25,2.25,0,0,0,1.33.39,2.84,2.84,0,0,0,1.48-.41,2.22,2.22,0,0,0,1-1.09,5.39,5.39,0,0,0,.3-2V28.83h1.75V39.2Zm4.2,0V28.83h1.58v1.45a3.69,3.69,0,0,1,3.14-1.69,3.32,3.32,0,0,1,1.89.49,2.56,2.56,0,0,1,1.05,1.32,3.72,3.72,0,0,1,3.2-1.81,3.18,3.18,0,0,1,2.38.86A3.67,3.67,0,0,1,60,32.08V39.2H58.24V32.67a4.63,4.63,0,0,0-.17-1.52,1.46,1.46,0,0,0-.62-.75,2,2,0,0,0-1.05-.28,2.49,2.49,0,0,0-1.83.74,3.17,3.17,0,0,0-.72,2.31v6H52.1V32.47a2.87,2.87,0,0,0-.43-1.75,1.61,1.61,0,0,0-1.41-.6,2.62,2.62,0,0,0-1.38.39,2.25,2.25,0,0,0-.9,1.14,6.46,6.46,0,0,0-.28,2.18V39.2Zm18.63,0H62.93V24.89h1.75V30a3.49,3.49,0,0,1,2.84-1.41,4.38,4.38,0,0,1,1.82.39,3.64,3.64,0,0,1,1.4,1.1,5,5,0,0,1,.86,1.67,6.86,6.86,0,0,1,.32,2.11A5.91,5.91,0,0,1,70.6,38a4.08,4.08,0,0,1-3.15,1.45,3.3,3.3,0,0,1-2.89-1.53Zm0-5.27a5.59,5.59,0,0,0,.5,2.71A2.56,2.56,0,0,0,67.29,38a2.48,2.48,0,0,0,2-1,4.49,4.49,0,0,0,.85-3,4.57,4.57,0,0,0-.81-3,2.46,2.46,0,0,0-1.94-1,2.56,2.56,0,0,0-2,1A4.44,4.44,0,0,0,64.54,33.93ZM81,35.86l1.81.23a4.42,4.42,0,0,1-1.59,2.47A5.44,5.44,0,0,1,74.68,38a5.51,5.51,0,0,1-1.33-3.93A5.73,5.73,0,0,1,74.7,30a4.56,4.56,0,0,1,3.5-1.45A4.41,4.41,0,0,1,81.59,30a5.62,5.62,0,0,1,1.33,4c0,.1,0,.26,0,.47H75.17a4,4,0,0,0,1,2.61,2.93,2.93,0,0,0,2.18.9,2.71,2.71,0,0,0,1.64-.5A3.45,3.45,0,0,0,81,35.86ZM75.26,33h5.8a3.57,3.57,0,0,0-.66-1.95,2.7,2.7,0,0,0-2.19-1,2.76,2.76,0,0,0-2,.82A3.16,3.16,0,0,0,75.26,33Zm9.66,6.19V28.83h1.57V30.4A4.15,4.15,0,0,1,87.62,29a1.91,1.91,0,0,1,1.12-.36,3.53,3.53,0,0,1,1.82.56L90,30.79a2.47,2.47,0,0,0-1.28-.39,1.67,1.67,0,0,0-1,.36,2,2,0,0,0-.66,1,6.94,6.94,0,0,0-.28,2V39.2ZM97.29,34a5.36,5.36,0,0,1,1.59-4.26,4.86,4.86,0,0,1,3.27-1.16A4.57,4.57,0,0,1,105.63,30,5.31,5.31,0,0,1,107,33.87,6.93,6.93,0,0,1,106.4,37a4.29,4.29,0,0,1-1.75,1.78,5.07,5.07,0,0,1-2.5.62A4.66,4.66,0,0,1,98.62,38,5.61,5.61,0,0,1,97.29,34Zm1.8,0a4.41,4.41,0,0,0,.86,3,2.82,2.82,0,0,0,2.2,1,2.77,2.77,0,0,0,2.17-1,4.57,4.57,0,0,0,.88-3,4.29,4.29,0,0,0-.88-2.91A2.89,2.89,0,0,0,100,31,4.39,4.39,0,0,0,99.09,34Zm10.26,5.19v-9h-1.54V28.83h1.54v-1.1a5,5,0,0,1,.19-1.56,2.2,2.2,0,0,1,.89-1.11,3.28,3.28,0,0,1,1.8-.42,8.31,8.31,0,0,1,1.64.17l-.27,1.53a6.33,6.33,0,0,0-1-.09,1.57,1.57,0,0,0-1.14.34,1.88,1.88,0,0,0-.33,1.28v1h2V30.2h-2v9Zm15.46,0V26.58h-4.72V24.89h11.34v1.69H126.7V39.2Zm10,0-3.17-10.37h1.81l1.66,6,.61,2.23c0-.11.21-.82.53-2.14L138,28.83h1.81l1.55,6,.51,2,.6-2,1.78-6h1.7L142.67,39.2h-1.83L139.18,33l-.39-1.76-2.11,8ZM154,35.86l1.81.23a4.42,4.42,0,0,1-1.59,2.47,5.44,5.44,0,0,1-6.58-.52,5.51,5.51,0,0,1-1.33-3.93A5.73,5.73,0,0,1,147.7,30a4.56,4.56,0,0,1,3.5-1.45A4.41,4.41,0,0,1,154.59,30a5.62,5.62,0,0,1,1.33,4c0,.1,0,.26,0,.47h-7.73a4,4,0,0,0,1,2.61,2.93,2.93,0,0,0,2.18.9,2.71,2.71,0,0,0,1.64-.5A3.45,3.45,0,0,0,154,35.86ZM148.26,33h5.8a3.57,3.57,0,0,0-.66-1.95,2.7,2.7,0,0,0-2.19-1,2.76,2.76,0,0,0-2,.82A3.16,3.16,0,0,0,148.26,33ZM165,35.86l1.81.23a4.42,4.42,0,0,1-1.59,2.47,5.44,5.44,0,0,1-6.58-.52,5.51,5.51,0,0,1-1.33-3.93A5.73,5.73,0,0,1,158.7,30a4.56,4.56,0,0,1,3.5-1.45A4.41,4.41,0,0,1,165.59,30a5.62,5.62,0,0,1,1.33,4c0,.1,0,.26,0,.47h-7.73a4,4,0,0,0,1,2.61,2.93,2.93,0,0,0,2.18.9,2.71,2.71,0,0,0,1.64-.5A3.45,3.45,0,0,0,165,35.86ZM159.26,33h5.8a3.57,3.57,0,0,0-.66-1.95,2.7,2.7,0,0,0-2.19-1,2.76,2.76,0,0,0-2,.82A3.16,3.16,0,0,0,159.26,33Zm13.51,4.61.25,1.56a6.06,6.06,0,0,1-1.32.16,3.07,3.07,0,0,1-1.49-.3,1.73,1.73,0,0,1-.73-.79,6.16,6.16,0,0,1-.22-2.08v-6H168V28.83h1.28V26.26L171,25.2v3.63h1.76V30.2H171v6.06a3.17,3.17,0,0,0,.09,1,.91.91,0,0,0,.3.35,1.29,1.29,0,0,0,.61.12A5.3,5.3,0,0,0,172.77,37.62Zm1.46-1.51,1.75-.28a2.38,2.38,0,0,0,.81,1.6,2.87,2.87,0,0,0,1.88.55,2.76,2.76,0,0,0,1.78-.48,1.51,1.51,0,0,0,.59-1.16,1.06,1.06,0,0,0-.52-.94,7.81,7.81,0,0,0-1.79-.59A19.43,19.43,0,0,1,176,34a2.65,2.65,0,0,1-1.12-1,2.56,2.56,0,0,1-.4-1.4,2.74,2.74,0,0,1,.32-1.29,3,3,0,0,1,.87-1,3.38,3.38,0,0,1,1.11-.5,5.1,5.1,0,0,1,1.53-.22,5.81,5.81,0,0,1,2.14.36,2.84,2.84,0,0,1,1.36.95,3.72,3.72,0,0,1,.61,1.6l-1.72.23a1.85,1.85,0,0,0-.68-1.23,2.44,2.44,0,0,0-1.58-.46,2.89,2.89,0,0,0-1.74.41,1.14,1.14,0,0,0-.51.92,1,1,0,0,0,.22.63,1.56,1.56,0,0,0,.67.47c.18.06.69.2,1.55.43a20.35,20.35,0,0,1,2.6.83,2.67,2.67,0,0,1,1.16.92,2.55,2.55,0,0,1,.42,1.5,3,3,0,0,1-.51,1.66,3.32,3.32,0,0,1-1.49,1.2,5.4,5.4,0,0,1-2.18.42,4.87,4.87,0,0,1-3.08-.84A3.92,3.92,0,0,1,174.23,36.11Zm16.36-3.88a7.82,7.82,0,0,1,1.9-5.58,6.54,6.54,0,0,1,5-2,6.71,6.71,0,0,1,3.56,1,6.15,6.15,0,0,1,2.42,2.65,9.14,9.14,0,0,1,0,7.72,6,6,0,0,1-2.5,2.61,7.08,7.08,0,0,1-3.47.89,6.78,6.78,0,0,1-3.61-1,6.37,6.37,0,0,1-2.42-2.67A8.25,8.25,0,0,1,190.59,32.23Zm1.95,0a5.75,5.75,0,0,0,1.39,4.08,4.84,4.84,0,0,0,7,0A6.12,6.12,0,0,0,202.32,32a7.34,7.34,0,0,0-.59-3A4.51,4.51,0,0,0,200,27a4.71,4.71,0,0,0-2.56-.72A4.86,4.86,0,0,0,194,27.65Q192.54,29,192.54,32.26Zm17.28,6.94-3.95-10.37h1.86L210,35c.24.67.46,1.36.66,2.08.15-.54.37-1.2.65-2l2.3-6.32h1.81L211.46,39.2ZM224,35.86l1.81.23a4.42,4.42,0,0,1-1.59,2.47,5.44,5.44,0,0,1-6.58-.52,5.51,5.51,0,0,1-1.33-3.93A5.73,5.73,0,0,1,217.7,30a4.56,4.56,0,0,1,3.5-1.45A4.41,4.41,0,0,1,224.59,30a5.62,5.62,0,0,1,1.33,4c0,.1,0,.26,0,.47h-7.73a4,4,0,0,0,1,2.61,2.93,2.93,0,0,0,2.18.9,2.71,2.71,0,0,0,1.64-.5A3.45,3.45,0,0,0,224,35.86ZM218.26,33h5.8a3.57,3.57,0,0,0-.66-1.95,2.7,2.7,0,0,0-2.19-1,2.76,2.76,0,0,0-2,.82A3.16,3.16,0,0,0,218.26,33Zm9.66,6.19V28.83h1.57V30.4A4.15,4.15,0,0,1,230.62,29a1.91,1.91,0,0,1,1.12-.36,3.53,3.53,0,0,1,1.82.56L233,30.79a2.47,2.47,0,0,0-1.28-.39,1.67,1.67,0,0,0-1,.36,2,2,0,0,0-.66,1,6.94,6.94,0,0,0-.28,2V39.2Zm16.85-1.58.25,1.56a6.06,6.06,0,0,1-1.32.16,3.07,3.07,0,0,1-1.49-.3,1.73,1.73,0,0,1-.73-.79,6.16,6.16,0,0,1-.22-2.08v-6H240V28.83h1.28V26.26L243,25.2v3.63h1.76V30.2H243v6.06a3.17,3.17,0,0,0,.09,1,.91.91,0,0,0,.3.35,1.29,1.29,0,0,0,.61.12A5.3,5.3,0,0,0,244.77,37.62Zm2.16,1.58V24.89h1.77V30a3.93,3.93,0,0,1,3.11-1.42,4.13,4.13,0,0,1,2,.45A2.67,2.67,0,0,1,255,30.31a5.61,5.61,0,0,1,.37,2.31V39.2h-1.75V32.62a2.66,2.66,0,0,0-.57-1.9,2.12,2.12,0,0,0-1.61-.61,3,3,0,0,0-1.49.4,2.29,2.29,0,0,0-1,1.11,5.17,5.17,0,0,0-.28,1.91V39.2ZM265,35.86l1.81.23a4.42,4.42,0,0,1-1.59,2.47,5.44,5.44,0,0,1-6.58-.52,5.51,5.51,0,0,1-1.33-3.93A5.73,5.73,0,0,1,258.7,30a4.56,4.56,0,0,1,3.5-1.45A4.41,4.41,0,0,1,265.59,30a5.62,5.62,0,0,1,1.33,4c0,.1,0,.26,0,.47h-7.73a4,4,0,0,0,1,2.61,2.93,2.93,0,0,0,2.18.9,2.71,2.71,0,0,0,1.64-.5A3.45,3.45,0,0,0,265,35.86ZM259.26,33h5.8a3.57,3.57,0,0,0-.66-1.95,2.7,2.7,0,0,0-2.19-1,2.76,2.76,0,0,0-2,.82A3.16,3.16,0,0,0,259.26,33Zm26.12,1.17,1.89.47a6.31,6.31,0,0,1-2.14,3.58,5.94,5.94,0,0,1-3.79,1.22,6.82,6.82,0,0,1-3.77-.94,6,6,0,0,1-2.2-2.73,9.9,9.9,0,0,1-.75-3.85,8.51,8.51,0,0,1,.84-3.89,5.91,5.91,0,0,1,2.44-2.53,7.07,7.07,0,0,1,3.47-.87A5.82,5.82,0,0,1,285,25.73a5.66,5.66,0,0,1,2,3.08l-1.85.44A4.4,4.4,0,0,0,283.71,27a3.76,3.76,0,0,0-2.37-.72,4.63,4.63,0,0,0-2.77.8A4.13,4.13,0,0,0,277,29.18a8.78,8.78,0,0,0-.44,2.74,8.9,8.9,0,0,0,.53,3.2,3.93,3.93,0,0,0,1.66,2,4.64,4.64,0,0,0,2.42.68,4.06,4.06,0,0,0,2.7-.93A4.67,4.67,0,0,0,285.38,34.18Zm2.91-.17a5.36,5.36,0,0,1,1.59-4.26,4.86,4.86,0,0,1,3.27-1.16A4.57,4.57,0,0,1,296.63,30,5.31,5.31,0,0,1,298,33.87,6.93,6.93,0,0,1,297.4,37a4.29,4.29,0,0,1-1.75,1.78,5.07,5.07,0,0,1-2.5.62A4.66,4.66,0,0,1,289.62,38,5.61,5.61,0,0,1,288.29,34Zm1.8,0a4.41,4.41,0,0,0,.86,3,2.82,2.82,0,0,0,2.2,1,2.77,2.77,0,0,0,2.17-1,4.57,4.57,0,0,0,.88-3,4.29,4.29,0,0,0-.88-2.91A2.89,2.89,0,0,0,291,31,4.39,4.39,0,0,0,290.09,34Zm16.64,5.19V37.67a3.76,3.76,0,0,1-3.28,1.76,4.26,4.26,0,0,1-1.72-.34,3,3,0,0,1-1.19-.89,3.31,3.31,0,0,1-.53-1.31,9,9,0,0,1-.11-1.64V28.83h1.75v5.75a10.33,10.33,0,0,0,.11,1.85,1.92,1.92,0,0,0,.7,1.1,2.25,2.25,0,0,0,1.33.39,2.84,2.84,0,0,0,1.48-.41,2.22,2.22,0,0,0,1-1.09,5.39,5.39,0,0,0,.3-2V28.83h1.75V39.2Zm4.19,0V28.83h1.57V30.4A4.15,4.15,0,0,1,313.62,29a1.91,1.91,0,0,1,1.12-.36,3.53,3.53,0,0,1,1.82.56L316,30.79a2.47,2.47,0,0,0-1.28-.39,1.67,1.67,0,0,0-1.05.36,2,2,0,0,0-.66,1,6.94,6.94,0,0,0-.28,2V39.2Zm6.31-3.09,1.75-.28a2.38,2.38,0,0,0,.81,1.6,2.87,2.87,0,0,0,1.88.55,2.76,2.76,0,0,0,1.78-.48,1.51,1.51,0,0,0,.59-1.16,1.06,1.06,0,0,0-.52-.94,7.81,7.81,0,0,0-1.79-.59A19.43,19.43,0,0,1,319,34a2.65,2.65,0,0,1-1.12-1,2.56,2.56,0,0,1-.4-1.4,2.74,2.74,0,0,1,.32-1.29,3,3,0,0,1,.87-1,3.38,3.38,0,0,1,1.11-.5,5.1,5.1,0,0,1,1.53-.22,5.81,5.81,0,0,1,2.14.36,2.84,2.84,0,0,1,1.36.95,3.72,3.72,0,0,1,.61,1.6l-1.72.23a1.85,1.85,0,0,0-.68-1.23,2.44,2.44,0,0,0-1.58-.46,2.89,2.89,0,0,0-1.74.41,1.14,1.14,0,0,0-.51.92,1,1,0,0,0,.22.63,1.56,1.56,0,0,0,.67.47c.18.06.69.2,1.55.43a20.35,20.35,0,0,1,2.6.83,2.67,2.67,0,0,1,1.16.92,2.55,2.55,0,0,1,.42,1.5,3,3,0,0,1-.51,1.66,3.32,3.32,0,0,1-1.49,1.2,5.4,5.4,0,0,1-2.18.42,4.87,4.87,0,0,1-3.08-.84A3.92,3.92,0,0,1,317.23,36.11ZM335,35.86l1.81.23a4.42,4.42,0,0,1-1.59,2.47,5.44,5.44,0,0,1-6.58-.52,5.51,5.51,0,0,1-1.33-3.93A5.73,5.73,0,0,1,328.7,30a4.56,4.56,0,0,1,3.5-1.45A4.41,4.41,0,0,1,335.59,30a5.62,5.62,0,0,1,1.33,4c0,.1,0,.26,0,.47h-7.73a4,4,0,0,0,1,2.61,2.93,2.93,0,0,0,2.18.9,2.71,2.71,0,0,0,1.64-.5A3.45,3.45,0,0,0,335,35.86ZM329.26,33h5.8a3.57,3.57,0,0,0-.66-1.95,2.7,2.7,0,0,0-2.19-1,2.76,2.76,0,0,0-2,.82A3.16,3.16,0,0,0,329.26,33Zm15,1a5.36,5.36,0,0,1,1.59-4.26,4.86,4.86,0,0,1,3.27-1.16A4.57,4.57,0,0,1,352.63,30,5.31,5.31,0,0,1,354,33.87,6.93,6.93,0,0,1,353.4,37a4.29,4.29,0,0,1-1.75,1.78,5.07,5.07,0,0,1-2.5.62A4.66,4.66,0,0,1,345.62,38,5.61,5.61,0,0,1,344.29,34Zm1.8,0a4.41,4.41,0,0,0,.86,3,2.82,2.82,0,0,0,2.2,1,2.77,2.77,0,0,0,2.17-1,4.57,4.57,0,0,0,.88-3,4.29,4.29,0,0,0-.88-2.91A2.89,2.89,0,0,0,347,31,4.39,4.39,0,0,0,346.09,34Zm10.26,5.19v-9h-1.54V28.83h1.54v-1.1a5,5,0,0,1,.19-1.56,2.2,2.2,0,0,1,.89-1.11,3.28,3.28,0,0,1,1.8-.42,8.31,8.31,0,0,1,1.64.17l-.27,1.53a6.33,6.33,0,0,0-1-.09,1.57,1.57,0,0,0-1.14.34,1.88,1.88,0,0,0-.33,1.28v1h2V30.2h-2v9Zm18.36-1.28a6.58,6.58,0,0,1-1.89,1.17,5.38,5.38,0,0,1-1.94.34,3.79,3.79,0,0,1-2.62-.82,2.77,2.77,0,0,1-.92-2.14,2.81,2.81,0,0,1,.34-1.39,3,3,0,0,1,.92-1,4.24,4.24,0,0,1,1.27-.6c.34-.08.86-.17,1.56-.26a16.46,16.46,0,0,0,3.13-.6c0-.24,0-.39,0-.47a2,2,0,0,0-.5-1.51,2.92,2.92,0,0,0-2-.6,3.12,3.12,0,0,0-1.84.44,2.7,2.7,0,0,0-.86,1.55l-1.72-.24a4.23,4.23,0,0,1,.77-1.78A3.19,3.19,0,0,1,370,29a6.83,6.83,0,0,1,2.36-.38,6.18,6.18,0,0,1,2.16.31,2.85,2.85,0,0,1,1.22.8,2.67,2.67,0,0,1,.54,1.19,8.43,8.43,0,0,1,.1,1.62v2.35a24.32,24.32,0,0,0,.11,3.11,3.67,3.67,0,0,0,.45,1.23h-1.84A3.7,3.7,0,0,1,374.71,37.92ZM374.56,34a12.45,12.45,0,0,1-2.88.65,6.88,6.88,0,0,0-1.53.36,1.61,1.61,0,0,0-.69.57,1.53,1.53,0,0,0-.25.84,1.5,1.5,0,0,0,.53,1.17,2.34,2.34,0,0,0,1.57.47,3.62,3.62,0,0,0,1.79-.44,2.81,2.81,0,0,0,1.17-1.22,4.25,4.25,0,0,0,.29-1.76Zm10.61,5.2V24.89h4.92a12.67,12.67,0,0,1,2.56.2,4.93,4.93,0,0,1,2.09,1,5.87,5.87,0,0,1,1.69,2.45A9.45,9.45,0,0,1,397,32a10.23,10.23,0,0,1-.37,2.89,6.65,6.65,0,0,1-1,2.07,5.24,5.24,0,0,1-1.29,1.32,5.58,5.58,0,0,1-1.71.72,10.49,10.49,0,0,1-2.31.23Zm1.89-1.69h3.06a7.45,7.45,0,0,0,2.2-.26,3.28,3.28,0,0,0,1.3-.75,4.52,4.52,0,0,0,1.05-1.8,8.93,8.93,0,0,0,.37-2.77,6.66,6.66,0,0,0-.73-3.45,3.68,3.68,0,0,0-1.8-1.61,7.18,7.18,0,0,0-2.44-.29h-3Zm18.65.41a6.58,6.58,0,0,1-1.89,1.17,5.38,5.38,0,0,1-1.94.34,3.79,3.79,0,0,1-2.62-.82,2.77,2.77,0,0,1-.92-2.14,2.81,2.81,0,0,1,.34-1.39,3,3,0,0,1,.92-1,4.24,4.24,0,0,1,1.27-.6c.34-.08.86-.17,1.56-.26a16.46,16.46,0,0,0,3.13-.6c0-.24,0-.39,0-.47a2,2,0,0,0-.5-1.51,2.92,2.92,0,0,0-2-.6,3.12,3.12,0,0,0-1.84.44,2.7,2.7,0,0,0-.86,1.55l-1.72-.24a4.23,4.23,0,0,1,.77-1.78A3.19,3.19,0,0,1,401,29a6.83,6.83,0,0,1,2.36-.38,6.18,6.18,0,0,1,2.16.31,2.85,2.85,0,0,1,1.22.8,2.67,2.67,0,0,1,.54,1.19,8.43,8.43,0,0,1,.1,1.62v2.35a24.32,24.32,0,0,0,.11,3.11,3.67,3.67,0,0,0,.45,1.23h-1.84A3.7,3.7,0,0,1,405.71,37.92ZM405.56,34a12.45,12.45,0,0,1-2.88.65,6.88,6.88,0,0,0-1.53.36,1.61,1.61,0,0,0-.69.57,1.53,1.53,0,0,0-.25.84,1.5,1.5,0,0,0,.53,1.17,2.34,2.34,0,0,0,1.57.47,3.62,3.62,0,0,0,1.79-.44,2.81,2.81,0,0,0,1.17-1.22,4.25,4.25,0,0,0,.29-1.76Zm4.29,9.2-.18-1.66a3.62,3.62,0,0,0,1,.16,1.89,1.89,0,0,0,.93-.2,1.64,1.64,0,0,0,.58-.53,7.88,7.88,0,0,0,.55-1.32c0-.1.08-.25.15-.43L409,28.83h1.89l2.15,6c.28.76.53,1.56.75,2.39.21-.8.45-1.59.72-2.36l2.22-6h1.77l-4,10.54a17.46,17.46,0,0,1-1,2.36A3.3,3.3,0,0,1,412.43,43a2.49,2.49,0,0,1-1.44.4A3.61,3.61,0,0,1,409.85,43.2Zm19.44.2a17,17,0,0,1-2.45-4.28,13.57,13.57,0,0,1-.25-9.56,18.48,18.48,0,0,1,2.7-4.92h1.27a29.57,29.57,0,0,0-1.57,2.9A16.53,16.53,0,0,0,427.63,34a17.58,17.58,0,0,0,2.93,9.37Zm3.8-4.2V24.89H435V37.51h7V39.2ZM443.29,34a5.36,5.36,0,0,1,1.59-4.26,4.86,4.86,0,0,1,3.27-1.16A4.57,4.57,0,0,1,451.63,30,5.31,5.31,0,0,1,453,33.87,6.93,6.93,0,0,1,452.4,37a4.29,4.29,0,0,1-1.75,1.78,5.07,5.07,0,0,1-2.5.62A4.66,4.66,0,0,1,444.62,38,5.61,5.61,0,0,1,443.29,34Zm1.8,0a4.41,4.41,0,0,0,.86,3,2.82,2.82,0,0,0,2.2,1,2.77,2.77,0,0,0,2.17-1,4.57,4.57,0,0,0,.88-3,4.29,4.29,0,0,0-.88-2.91A2.89,2.89,0,0,0,446,31,4.39,4.39,0,0,0,445.09,34Zm16.62,1.39,1.72.22A4.48,4.48,0,0,1,462,38.43a4.21,4.21,0,0,1-2.86,1A4.43,4.43,0,0,1,455.7,38a5.58,5.58,0,0,1-1.3-4,7.21,7.21,0,0,1,.55-2.94,3.88,3.88,0,0,1,1.7-1.89,5,5,0,0,1,2.48-.64,4.23,4.23,0,0,1,2.75.86,3.91,3.91,0,0,1,1.39,2.42l-1.71.27a2.75,2.75,0,0,0-.86-1.56,2.23,2.23,0,0,0-1.5-.54A2.71,2.71,0,0,0,457,31a4.5,4.5,0,0,0-.83,3,4.71,4.71,0,0,0,.8,3,2.6,2.6,0,0,0,2.09.94,2.49,2.49,0,0,0,1.72-.62A3.13,3.13,0,0,0,461.71,35.4Zm10,2.52a6.58,6.58,0,0,1-1.89,1.17,5.38,5.38,0,0,1-1.94.34,3.79,3.79,0,0,1-2.62-.82,2.77,2.77,0,0,1-.92-2.14,2.81,2.81,0,0,1,.34-1.39,3,3,0,0,1,.92-1,4.24,4.24,0,0,1,1.27-.6c.34-.08.86-.17,1.56-.26a16.46,16.46,0,0,0,3.13-.6c0-.24,0-.39,0-.47a2,2,0,0,0-.5-1.51,2.92,2.92,0,0,0-2-.6,3.12,3.12,0,0,0-1.84.44,2.7,2.7,0,0,0-.86,1.55l-1.72-.24a4.23,4.23,0,0,1,.77-1.78A3.19,3.19,0,0,1,467,29a6.83,6.83,0,0,1,2.36-.38,6.18,6.18,0,0,1,2.16.31,2.85,2.85,0,0,1,1.22.8,2.67,2.67,0,0,1,.54,1.19,8.43,8.43,0,0,1,.1,1.62v2.35a24.32,24.32,0,0,0,.11,3.11,3.67,3.67,0,0,0,.45,1.23h-1.84A3.7,3.7,0,0,1,471.71,37.92ZM471.56,34a12.45,12.45,0,0,1-2.88.65,6.88,6.88,0,0,0-1.53.36,1.61,1.61,0,0,0-.69.57,1.53,1.53,0,0,0-.25.84,1.5,1.5,0,0,0,.53,1.17,2.34,2.34,0,0,0,1.57.47,3.62,3.62,0,0,0,1.79-.44,2.81,2.81,0,0,0,1.17-1.22,4.25,4.25,0,0,0,.29-1.76Zm4.34,5.2V24.89h1.75V39.2Zm13.91,0V26.58h-4.72V24.89h11.34v1.69H491.7V39.2ZM498,26.9v-2h1.76v2Zm0,12.3V28.83h1.76V39.2Zm4,0V28.83h1.58v1.45a3.69,3.69,0,0,1,3.14-1.69,3.32,3.32,0,0,1,1.89.49,2.56,2.56,0,0,1,1,1.32,3.72,3.72,0,0,1,3.2-1.81,3.18,3.18,0,0,1,2.38.86,3.67,3.67,0,0,1,.82,2.63V39.2h-1.75V32.67a4.63,4.63,0,0,0-.17-1.52,1.46,1.46,0,0,0-.62-.75,2,2,0,0,0-1.05-.28,2.49,2.49,0,0,0-1.83.74,3.17,3.17,0,0,0-.72,2.31v6H508.1V32.47a2.87,2.87,0,0,0-.43-1.75,1.61,1.61,0,0,0-1.41-.6,2.62,2.62,0,0,0-1.38.39,2.25,2.25,0,0,0-.9,1.14,6.46,6.46,0,0,0-.28,2.18V39.2ZM526,35.86l1.81.23a4.42,4.42,0,0,1-1.59,2.47,5.44,5.44,0,0,1-6.58-.52,5.51,5.51,0,0,1-1.33-3.93A5.73,5.73,0,0,1,519.7,30a4.56,4.56,0,0,1,3.5-1.45A4.41,4.41,0,0,1,526.59,30a5.62,5.62,0,0,1,1.33,4c0,.1,0,.26,0,.47h-7.73a4,4,0,0,0,1,2.61,2.93,2.93,0,0,0,2.18.9,2.71,2.71,0,0,0,1.64-.5A3.45,3.45,0,0,0,526,35.86ZM520.26,33h5.8a3.57,3.57,0,0,0-.66-1.95,2.7,2.7,0,0,0-2.19-1,2.76,2.76,0,0,0-2,.82A3.16,3.16,0,0,0,520.26,33ZM531.09,43.4h-1.25a17.71,17.71,0,0,0,2.9-9.37,16.5,16.5,0,0,0-.4-3.64,15.46,15.46,0,0,0-.94-2.81,29.27,29.27,0,0,0-1.56-2.94h1.25a18.57,18.57,0,0,1,2.72,4.92,13.43,13.43,0,0,1-.27,9.56A17.35,17.35,0,0,1,531.09,43.4Z"/><text class="cls-10" transform="translate(73.43 350.27) rotate(-45)">12:00<tspan class="cls-11" x="17.52" y="0"> </tspan><tspan x="19.08" y="0">AM</tspan></text><text class="cls-10" transform="translate(95.6 347.52) rotate(-45)">1:00<tspan class="cls-11" x="13.62" y="0"> </tspan><tspan x="15.19" y="0">AM</tspan></text><text class="cls-10" transform="translate(117.76 347.52) rotate(-45)">2:00<tspan class="cls-11" x="13.62" y="0"> </tspan><tspan x="15.19" y="0">AM</tspan></text><text class="cls-10" transform="translate(139.93 347.52) rotate(-45)">3:00<tspan class="cls-11" x="13.62" y="0"> </tspan><tspan x="15.19" y="0">AM</tspan></text><text class="cls-10" transform="translate(162.09 347.52) rotate(-45)">4:00<tspan class="cls-11" x="13.62" y="0"> </tspan><tspan x="15.19" y="0">AM</tspan></text><text class="cls-10" transform="translate(184.26 347.52) rotate(-45)">5:00<tspan class="cls-11" x="13.62" y="0"> </tspan><tspan x="15.19" y="0">AM</tspan></text><text class="cls-10" transform="translate(206.42 347.52) rotate(-45)">6:00<tspan class="cls-11" x="13.62" y="0"> </tspan><tspan x="15.19" y="0">AM</tspan></text><text class="cls-10" transform="translate(228.59 347.52) rotate(-45)">7:00<tspan class="cls-11" x="13.62" y="0"> </tspan><tspan x="15.19" y="0">AM</tspan></text><text class="cls-10" transform="translate(250.76 347.52) rotate(-45)">8:00<tspan class="cls-11" x="13.62" y="0"> </tspan><tspan x="15.19" y="0">AM</tspan></text><text class="cls-10" transform="translate(272.92 347.52) rotate(-45)">9:00<tspan class="cls-11" x="13.62" y="0"> </tspan><tspan x="15.19" y="0">AM</tspan></text><text class="cls-10" transform="translate(295.09 350.27) rotate(-45)">10:00<tspan class="cls-11" x="17.52" y="0"> </tspan><tspan x="19.08" y="0">AM</tspan></text><text class="cls-10" transform="translate(317.25 349.91) rotate(-45)"><tspan class="cls-12">1</tspan><tspan x="3.38" y="0">1:00</tspan><tspan class="cls-11" x="17" y="0"> </tspan><tspan x="18.56" y="0">AM</tspan></text><text class="cls-10" transform="translate(339.42 350.54) rotate(-45)">12:00 PM</text><text class="cls-10" transform="translate(361.58 347.79) rotate(-45)">1:00 PM</text><text class="cls-10" transform="translate(383.75 347.79) rotate(-45)">2:00 PM</text><text class="cls-10" transform="translate(405.91 347.79) rotate(-45)">3:00 PM</text><text class="cls-10" transform="translate(428.08 347.79) rotate(-45)">4:00 PM</text><text class="cls-10" transform="translate(450.24 347.79) rotate(-45)">5:00 PM</text><text class="cls-10" transform="translate(472.41 347.79) rotate(-45)">6:00 PM</text><text class="cls-10" transform="translate(494.57 347.79) rotate(-45)">7:00 PM</text><text class="cls-10" transform="translate(516.74 347.79) rotate(-45)">8:00 PM</text><text class="cls-10" transform="translate(538.9 347.79) rotate(-45)">9:00 PM</text><text class="cls-10" transform="translate(561.07 350.54) rotate(-45)">10:00 PM</text><text class="cls-10" transform="translate(583.23 350.18) rotate(-45)"><tspan class="cls-12">1</tspan><tspan x="3.38" y="0">1:00 PM</tspan></text><text class="cls-13" transform="translate(348.7 378.13)"><tspan class="cls-14">T</tspan><tspan x="6.89" y="0">ime</tspan></text></svg>